<svg width="24" height="24" viewBox="0 0 24 24" fill="none" xmlns="http://www.w3.org/2000/svg">
<g opacity="0.5">
<path opacity="0.4" d="M17.53 7.77C17.46 7.76 17.39 7.76 17.32 7.77C15.77 7.72 14.54 6.45 14.54 4.89C14.54 3.3 15.83 2 17.43 2C19.02 2 20.32 3.29 20.32 4.89C20.31 6.45 19.08 7.72 17.53 7.77Z" fill="white"/>
<path opacity="0.4" d="M20.7901 14.6999C19.6701 15.4499 18.1001 15.7299 16.6501 15.5399C17.0301 14.7199 17.2301 13.8099 17.2401 12.8499C17.2401 11.8499 17.0201 10.8999 16.6001 10.0699C18.0801 9.86992 19.6501 10.1499 20.7801 10.8999C22.3601 11.9399 22.3601 13.6499 20.7901 14.6999Z" fill="white"/>
<path opacity="0.4" d="M6.4399 7.77C6.5099 7.76 6.5799 7.76 6.6499 7.77C8.1999 7.72 9.4299 6.45 9.4299 4.89C9.4299 3.3 8.1399 2 6.5399 2C4.9499 2 3.6499 3.29 3.6499 4.89C3.6599 6.45 4.8899 7.72 6.4399 7.77Z" fill="white"/>
<path opacity="0.4" d="M6.55012 12.8501C6.55012 13.8201 6.76012 14.7401 7.14012 15.5701C5.73012 15.7201 4.26012 15.4201 3.18012 14.7101C1.60012 13.6601 1.60012 11.9501 3.18012 10.9001C4.25012 10.1801 5.76012 9.8901 7.18012 10.0501C6.77012 10.8901 6.55012 11.8401 6.55012 12.8501Z" fill="white"/>
<path d="M12.12 15.87C12.04 15.86 11.9501 15.86 11.8601 15.87C10.0201 15.81 8.55005 14.3 8.55005 12.44C8.55005 10.54 10.0801 9 11.9901 9C13.8901 9 15.43 10.54 15.43 12.44C15.43 14.3 13.97 15.81 12.12 15.87Z" fill="white"/>
<path d="M8.87005 17.9401C7.36005 18.9501 7.36005 20.6101 8.87005 21.6101C10.59 22.7601 13.4101 22.7601 15.1301 21.6101C16.6401 20.6001 16.6401 18.9401 15.1301 17.9401C13.4201 16.7901 10.6 16.7901 8.87005 17.9401Z" fill="white"/>
</g>
</svg>
