<svg width="16" height="16" viewBox="0 0 16 16" fill="none" xmlns="http://www.w3.org/2000/svg">
<path d="M8 6.85331C7.32 6.85331 6.64 6.73331 5.99334 6.49997C5.73334 6.40664 5.6 6.11997 5.69334 5.85997C5.79334 5.59997 6.08 5.46664 6.34 5.55997C7.41334 5.94664 8.59334 5.94664 9.66667 5.55997C9.92667 5.46664 10.2133 5.59997 10.3067 5.85997C10.4 6.11997 10.2667 6.40664 10.0067 6.49997C9.36 6.73331 8.68 6.85331 8 6.85331Z" fill="#404040"/>
<path d="M12.7134 15.1666C12.3734 15.1666 12 15.0666 11.64 14.86L8.38671 13.0533C8.19338 12.9466 7.81338 12.9466 7.62005 13.0533L4.36671 14.86C3.70671 15.2266 3.03338 15.2666 2.52005 14.96C2.00671 14.66 1.71338 14.0533 1.71338 13.3V3.90665C1.71338 2.21331 3.09338 0.833313 4.78671 0.833313H11.22C12.9134 0.833313 14.2934 2.21331 14.2934 3.90665V13.3C14.2934 14.0533 14 14.66 13.4867 14.96C13.2534 15.1 12.9867 15.1666 12.7134 15.1666ZM8.00005 11.9733C8.31338 11.9733 8.62005 12.04 8.86671 12.18L12.12 13.9866C12.46 14.18 12.7734 14.22 12.9734 14.1C13.1734 13.98 13.2867 13.6933 13.2867 13.3V3.90665C13.2867 2.76665 12.3534 1.83331 11.2134 1.83331H4.78671C3.64671 1.83331 2.71338 2.76665 2.71338 3.90665V13.3C2.71338 13.6933 2.82671 13.9866 3.02671 14.1C3.22671 14.2133 3.53338 14.18 3.88005 13.9866L7.13338 12.18C7.38005 12.04 7.68671 11.9733 8.00005 11.9733Z" fill="#404040"/>
<path d="M12.7134 15.1666C12.3734 15.1666 12 15.0666 11.64 14.86L8.38671 13.0533C8.19338 12.9466 7.81338 12.9466 7.62005 13.0533L4.36671 14.86C3.70671 15.2266 3.03338 15.2666 2.52005 14.96C2.00671 14.66 1.71338 14.0533 1.71338 13.3V3.90665C1.71338 2.21331 3.09338 0.833313 4.78671 0.833313H11.22C12.9134 0.833313 14.2934 2.21331 14.2934 3.90665V13.3C14.2934 14.0533 14 14.66 13.4867 14.96C13.2534 15.1 12.9867 15.1666 12.7134 15.1666ZM8.00005 11.9733C8.31338 11.9733 8.62005 12.04 8.86671 12.18L12.12 13.9866C12.46 14.18 12.7734 14.22 12.9734 14.1C13.1734 13.98 13.2867 13.6933 13.2867 13.3V3.90665C13.2867 2.76665 12.3534 1.83331 11.2134 1.83331H4.78671C3.64671 1.83331 2.71338 2.76665 2.71338 3.90665V13.3C2.71338 13.6933 2.82671 13.9866 3.02671 14.1C3.22671 14.2133 3.53338 14.18 3.88005 13.9866L7.13338 12.18C7.38005 12.04 7.68671 11.9733 8.00005 11.9733Z" fill="#404040"/>
</svg>
