<svg width="28" height="28" viewBox="0 0 28 28" fill="none" xmlns="http://www.w3.org/2000/svg">
<rect width="28" height="28" rx="5" fill="#F4F4F4"/>
<g clip-path="url(#clip0_0_5122)">
<path d="M6.11318 15.8132C6.11318 15.5342 6.11622 14.7884 6.10933 14.6966C6.11533 13.5869 5.30748 12.8041 4.79712 12.8652C4.44396 12.8958 4.14799 13.0396 3.98907 13.4533C3.84178 13.8389 3.97347 14.3517 4.46317 14.4721C4.98681 14.6013 5.29257 14.7089 5.51385 14.8606C5.78499 15.0463 6.00634 15.4011 6.01221 15.8136" fill="#0060AF"/>
<path d="M6.32219 17.5C5.39889 17.5 4.45 17.2729 3.50238 16.8237L3.47913 16.8123L3.46801 16.7886C3.04276 15.8921 2.81787 14.9116 2.81787 13.9522C2.81787 12.9943 3.03353 12.0558 3.4591 11.1605L3.47079 11.1367L3.49448 11.1248C4.37108 10.7101 5.31409 10.5 6.29818 10.5C7.2149 10.5 8.19393 10.7339 9.12898 11.1775L9.15299 11.1882L9.16405 11.2124C9.59745 12.1254 9.826 13.1057 9.826 14.0492C9.826 14.9889 9.60655 15.9283 9.17264 16.8408L9.1612 16.8648L9.13707 16.8759C8.27386 17.284 7.30039 17.5 6.32219 17.5ZM3.59009 16.7008C4.51067 17.1332 5.42878 17.3516 6.32219 17.3516C7.2695 17.3516 8.21162 17.1448 9.05025 16.7528C9.46684 15.8686 9.67801 14.9586 9.67801 14.0492C9.67801 13.136 9.45762 12.1861 9.04071 11.3C8.13327 10.874 7.18558 10.648 6.29818 10.648C5.34544 10.648 4.43225 10.8499 3.58212 11.248C3.17406 12.1158 2.96636 13.0251 2.96636 13.9522C2.96636 14.8812 3.18221 15.8314 3.59009 16.7008Z" fill="#0060AF"/>
<path d="M5.89436 15.8137C5.89607 15.456 5.69621 15.1398 5.43499 14.9699C5.20328 14.8197 4.89221 14.721 4.39037 14.5939C4.23525 14.5542 4.07298 14.4662 4.02275 14.354C3.88987 14.4877 3.86573 14.7884 3.88911 14.9641C3.91628 15.1674 4.15418 15.5025 4.51239 15.5156C4.73114 15.5244 5.00772 15.4686 5.14035 15.4404C5.36915 15.3911 5.73115 15.5342 5.78878 15.8132" fill="#0060AF"/>
<path d="M6.29821 11.1357C5.69085 11.1357 5.1662 11.5358 5.1681 12.228C5.16999 12.8101 5.63872 13.1217 5.80597 13.3443C6.05872 13.6797 6.19553 14.0767 6.20974 14.6841C6.2208 15.1676 6.22023 15.645 6.2227 15.8142H6.35678C6.35444 15.6372 6.34838 15.1304 6.35532 14.6692C6.36442 14.0615 6.50615 13.6797 6.75903 13.3443C6.92774 13.1217 7.39609 12.8101 7.3971 12.228C7.39937 11.5358 6.87504 11.1357 6.26819 11.1357" fill="#0060AF"/>
<path d="M6.4524 15.8132C6.4524 15.5342 6.44924 14.7884 6.456 14.6966C6.45006 13.5869 7.25741 12.8041 7.76822 12.8652C8.12137 12.8958 8.41702 13.0396 8.57638 13.4533C8.72355 13.8389 8.59111 14.3517 8.10197 14.4721C7.57808 14.6013 7.2727 14.7089 7.05085 14.8606C6.78003 15.0463 6.57416 15.4011 6.56784 15.8136" fill="#0060AF"/>
<path d="M6.67116 15.8137C6.66926 15.456 6.86906 15.1398 7.12952 14.9699C7.36217 14.8197 7.67363 14.721 8.17502 14.5939C8.33046 14.5542 8.49254 14.4662 8.54189 14.354C8.6754 14.4877 8.69948 14.7884 8.6761 14.9641C8.64836 15.1674 8.41109 15.5025 8.05351 15.5156C7.83482 15.5244 7.55679 15.4686 7.42473 15.4404C7.19681 15.3911 6.8338 15.5342 6.77592 15.8132" fill="#0060AF"/>
<path d="M6.85848 16.9681L6.78076 16.4017L6.96837 16.3733C7.01405 16.3671 7.06965 16.375 7.0919 16.4036C7.11648 16.4335 7.124 16.4582 7.12874 16.4973C7.13581 16.5457 7.12178 16.6017 7.06719 16.6295V16.6312C7.12817 16.6312 7.16501 16.675 7.17568 16.7488C7.17726 16.7644 7.18188 16.8021 7.17726 16.8335C7.16488 16.9083 7.1202 16.9323 7.04482 16.9429L6.85848 16.9681ZM6.97923 16.8667C7.00148 16.8635 7.02403 16.8623 7.04166 16.8511C7.06864 16.8335 7.06618 16.7958 7.06245 16.7679C7.05304 16.7064 7.03699 16.6831 6.97171 16.6927L6.93071 16.699L6.95668 16.8699L6.97923 16.8667ZM6.93993 16.605C6.96476 16.601 6.99844 16.598 7.01247 16.5745C7.0198 16.5587 7.02922 16.5462 7.02302 16.5113C7.01538 16.4698 7.0016 16.4441 6.9489 16.4541L6.89981 16.462L6.91914 16.6071" fill="#0060AF"/>
<path d="M7.67097 16.6277C7.67242 16.6382 7.67413 16.65 7.67476 16.6605C7.68992 16.7638 7.67097 16.8493 7.5547 16.8728C7.38283 16.9059 7.34991 16.7993 7.31964 16.65L7.30353 16.5692C7.27984 16.4263 7.26966 16.3181 7.43724 16.2848C7.5317 16.2676 7.59413 16.3051 7.6201 16.399C7.62414 16.413 7.6292 16.4269 7.6311 16.441L7.52829 16.4622C7.51641 16.4269 7.50068 16.3639 7.45442 16.3692C7.37139 16.3792 7.39882 16.4823 7.40735 16.5254L7.43825 16.6805C7.44754 16.7274 7.46599 16.8023 7.53783 16.7878C7.59615 16.7762 7.57075 16.6854 7.56557 16.6483" fill="#0060AF"/>
<path d="M7.83599 16.7989L7.80042 16.2127L7.93854 16.1707L8.22813 16.6804L8.11939 16.7129L8.05076 16.5834L7.93001 16.6196L7.94562 16.7669L7.83599 16.7989ZM7.9199 16.5249L8.00716 16.4997L7.89128 16.2625" fill="#0060AF"/>
<path d="M4.42448 16.3558C4.4677 16.2176 4.50643 16.1158 4.67135 16.161C4.75963 16.1856 4.81435 16.2245 4.81175 16.3269C4.81133 16.3497 4.80379 16.3729 4.79886 16.3954L4.69618 16.3671C4.70964 16.3106 4.71817 16.2657 4.64841 16.2442C4.56779 16.2222 4.54814 16.3198 4.53702 16.3619L4.49525 16.5156C4.48198 16.5612 4.46606 16.6366 4.53702 16.6561C4.59565 16.6719 4.63123 16.6144 4.65246 16.5304L4.58061 16.5114L4.60545 16.4225L4.77435 16.4768L4.69416 16.773L4.61644 16.7519L4.63395 16.6893H4.63173C4.59597 16.7405 4.55231 16.7458 4.51408 16.7385C4.34518 16.6929 4.36281 16.5826 4.40312 16.4353" fill="#0060AF"/>
<path d="M5.05306 16.6059L5.00219 16.8469L4.8877 16.8221L5.00971 16.2595L5.2049 16.3036C5.31914 16.3282 5.35364 16.379 5.33746 16.4836C5.32824 16.5436 5.2986 16.6082 5.22625 16.603L5.2255 16.602C5.28666 16.6234 5.29184 16.6542 5.28116 16.7075C5.27655 16.7301 5.24477 16.8676 5.26669 16.8899L5.26745 16.9067L5.14898 16.8758C5.14405 16.8377 5.16079 16.7692 5.16743 16.7313C5.17412 16.6977 5.1848 16.6504 5.15068 16.6326C5.12395 16.6184 5.11403 16.6191 5.08383 16.6121L5.05306 16.6059ZM5.07258 16.5188L5.14967 16.5395C5.19649 16.5463 5.22253 16.522 5.23175 16.4656C5.24009 16.4138 5.22929 16.3935 5.18727 16.3835L5.10462 16.3667" fill="#0060AF"/>
<path d="M5.78748 16.3853L5.90071 16.3984L5.85193 16.7939C5.82823 16.9193 5.77971 16.9742 5.64158 16.957C5.50105 16.9393 5.46769 16.8753 5.47622 16.7489L5.52531 16.3538L5.63943 16.3668L5.59046 16.7532C5.58528 16.7951 5.57555 16.8573 5.6503 16.8648C5.71658 16.8698 5.73162 16.826 5.73908 16.7715" fill="#0060AF"/>
<path d="M6.02563 16.9786L6.05969 16.4131L6.27725 16.4225C6.38005 16.4275 6.40697 16.5114 6.40375 16.5914C6.40078 16.6401 6.38555 16.6944 6.34309 16.7239C6.30827 16.7489 6.26354 16.7549 6.22202 16.7529L6.15112 16.7489L6.13697 16.986L6.02563 16.9786ZM6.15435 16.6627L6.21197 16.6659C6.2588 16.6676 6.28982 16.6491 6.29387 16.5804C6.29614 16.5145 6.27118 16.5033 6.21052 16.5007L6.16484 16.4991" fill="#0060AF"/>
<path d="M21.3695 11.6825L20.5048 13.2499C20.1785 12.9852 19.7799 12.7904 19.2715 12.7904C18.0682 12.7904 17.5794 13.6862 17.5794 14.3172C17.5794 14.7855 17.8865 15.4766 18.9572 15.4766C19.4066 15.4766 20.0455 15.1644 20.2293 15.0223L19.3742 16.8407C18.9665 16.9219 18.8326 16.9723 18.4876 16.983C16.5713 17.0401 15.7969 15.8644 15.7975 14.6631C15.7988 13.0749 17.2126 11.1435 19.5563 11.1435C19.6999 11.1435 19.8756 11.1931 20.0258 11.2481L20.1776 11.0542" fill="#0060AF"/>
<path d="M24.9373 11.1033L25.1821 16.8H23.3599L23.3589 15.823H22.1163L21.7074 16.8H19.7312L21.7972 12.732L21.3314 12.729L22.2166 11.1033H24.9373ZM23.347 12.846L22.6445 14.503H23.3682" fill="#0060AF"/>
<path d="M14.647 11.1033C15.5494 11.1084 16.0593 11.5976 16.0593 12.3042C16.0593 12.9557 15.5215 13.5323 14.9312 13.8305C15.539 14.0537 15.5915 14.6014 15.5915 14.989C15.5915 15.9252 14.6509 16.8 13.4281 16.8H10.7615L11.8017 12.7888L11.3744 12.7863L12.2478 11.1033C12.2478 11.1033 13.9132 11.0983 14.647 11.1033ZM13.7617 13.413C13.9483 13.413 14.2779 13.3658 14.3603 13.005C14.4506 12.6134 14.1413 12.6029 13.9929 12.6029L13.4628 12.6005L13.2779 13.413L13.7617 13.413ZM13.0122 14.4197L12.7681 15.3559H13.3923C13.6379 15.3559 13.9726 15.2342 14.0546 14.9295C14.1356 14.624 13.9016 14.4197 13.6569 14.4197" fill="#0060AF"/>
</g>
<defs>
<clipPath id="clip0_0_5122">
<rect width="22.3642" height="7" fill="white" transform="translate(2.81787 10.5)"/>
</clipPath>
</defs>
</svg>
