<svg width="28" height="28" viewBox="0 0 28 28" fill="none" xmlns="http://www.w3.org/2000/svg">
<rect width="28" height="28" rx="5" fill="#F4F4F4"/>
<path d="M17.6132 11.7886V18.8922H19.2831V13.5679C19.2831 13.1704 19.0709 11.9693 17.6132 11.7886Z" fill="#00A39D"/>
<path d="M8.73368 17.6567C8.94585 17.6567 9.11976 17.6301 9.25397 17.5756C9.38819 17.521 9.49413 17.4514 9.57037 17.3668C9.64662 17.2806 9.69802 17.1846 9.72772 17.077C9.75599 16.9693 9.77084 16.86 9.77084 16.7489C9.77084 16.6212 9.75428 16.5087 9.72115 16.4059C9.68803 16.3048 9.63006 16.2186 9.55038 16.1492C9.46928 16.0795 9.36306 16.025 9.22913 15.9867C9.09663 15.9487 8.92757 15.9305 8.7254 15.9305H7.602V17.6567H8.73368ZM7.602 13.1439V14.8553H8.43869C8.61603 14.8553 8.77651 14.8422 8.91901 14.8173C9.0615 14.7925 9.1823 14.7477 9.28338 14.6848C9.38276 14.622 9.459 14.5341 9.51212 14.423C9.56523 14.3119 9.59008 14.1728 9.59008 14.0038C9.59008 13.8381 9.57009 13.7022 9.52868 13.5928C9.48728 13.4835 9.42445 13.3958 9.33821 13.3296C9.25197 13.2633 9.14432 13.2153 9.01182 13.1871C8.88103 13.1588 8.72368 13.1439 8.54292 13.1439H7.60057H7.602ZM8.54464 11.9412C9.02352 11.9412 9.43102 11.986 9.76713 12.0737C10.1035 12.163 10.3785 12.2873 10.5904 12.4497C10.8026 12.6122 10.9582 12.8076 11.0542 13.0394C11.1501 13.2713 11.2001 13.5297 11.2001 13.8147C11.2001 13.9704 11.1787 14.1194 11.1338 14.2636C11.089 14.4078 11.0196 14.5421 10.9251 14.668C10.8306 14.7939 10.7081 14.9081 10.559 15.0127C10.4099 15.1169 10.2309 15.2083 10.0221 15.2842C10.4793 15.3953 10.8174 15.5741 11.0359 15.8211C11.2543 16.0681 11.364 16.3893 11.364 16.782C11.364 17.077 11.3077 17.352 11.1932 17.6053C11.079 17.8588 10.9117 18.0807 10.6912 18.2681C10.4707 18.4568 10.1992 18.6044 9.87621 18.7104C9.55324 18.8163 9.18372 18.8695 8.76795 18.8695H6V11.9412H8.54949H8.54464Z" fill="#00A39D"/>
<path d="M16.1934 13.3478C16.1454 13.424 16.0957 13.4803 16.0443 13.5185C15.9912 13.5565 15.925 13.5748 15.8421 13.5748C15.7693 13.5748 15.6914 13.5517 15.6068 13.5051C15.5223 13.4589 15.4278 13.4075 15.3218 13.3509C15.2159 13.2947 15.0948 13.2416 14.9575 13.1967C14.8215 13.1505 14.6659 13.127 14.492 13.127C14.1905 13.127 13.9669 13.1916 13.8195 13.3192C13.6722 13.4469 13.5976 13.6208 13.5976 13.8395C13.5976 13.9786 13.6425 14.0945 13.7301 14.1873C13.8195 14.2801 13.9354 14.3581 14.0797 14.4258C14.2239 14.492 14.3895 14.5534 14.5751 14.6097C14.7607 14.6659 14.9495 14.7273 15.1434 14.7953C15.3373 14.8633 15.526 14.9426 15.7116 15.0354C15.8973 15.1283 16.0629 15.2442 16.2071 15.3867C16.3513 15.5292 16.4672 15.7031 16.5566 15.907C16.646 16.1109 16.6891 16.3576 16.6891 16.6457C16.6891 16.9656 16.6346 17.2654 16.5235 17.5435C16.4124 17.822 16.2519 18.0653 16.0397 18.274C15.8293 18.481 15.5691 18.6452 15.2596 18.7643C14.95 18.8834 14.5985 18.9434 14.2059 18.9434C13.9906 18.9434 13.7701 18.9219 13.5465 18.8771C13.3229 18.8323 13.1059 18.7694 12.8971 18.6898C12.6884 18.6087 12.4914 18.5124 12.3075 18.4016C12.1236 18.2906 11.9628 18.1663 11.8271 18.0304L12.3026 17.28C12.3406 17.2254 12.3903 17.1806 12.4517 17.144C12.5131 17.1075 12.581 17.0895 12.6538 17.0895C12.7484 17.0895 12.8443 17.1192 12.942 17.1806C13.0379 17.2403 13.1473 17.3082 13.2701 17.3811C13.3926 17.4539 13.5319 17.5201 13.691 17.5815C13.8501 17.6412 14.0371 17.6726 14.2527 17.6726C14.5443 17.6726 14.7713 17.6081 14.9335 17.4804C15.096 17.3511 15.1754 17.1492 15.1754 16.869C15.1754 16.7066 15.1305 16.5758 15.0429 16.4747C14.9535 16.3736 14.8375 16.2891 14.6933 16.2228C14.5491 16.1566 14.3852 16.0969 14.2013 16.0472C14.0174 15.9958 13.8286 15.9395 13.6348 15.8781C13.4409 15.8167 13.2521 15.7405 13.0682 15.6494C12.8843 15.5583 12.7204 15.4407 12.5762 15.2933C12.432 15.146 12.3143 14.9621 12.2266 14.7416C12.1373 14.5212 12.0941 14.2496 12.0941 13.9266C12.0941 13.6665 12.1473 13.4132 12.2515 13.1662C12.3557 12.9194 12.5099 12.699 12.7138 12.5051C12.9177 12.3112 13.1661 12.1573 13.4608 12.0413C13.7558 11.9254 14.0936 11.8674 14.4746 11.8674C14.6868 11.8674 14.8938 11.884 15.096 11.9171C15.2981 11.9502 15.4886 11.9999 15.6691 12.0645C15.8496 12.129 16.0186 12.207 16.176 12.2981C16.3333 12.3892 16.4724 12.4902 16.5969 12.6045L16.1977 13.3515L16.1934 13.3478Z" fill="#00A39D"/>
<path d="M19.4671 9.22908C19.4637 9.17111 19.4571 9.11314 19.4488 9.05688C19.8232 9.44296 20.3566 9.66827 20.9349 9.63172C21.2116 9.61344 21.47 9.5372 21.7002 9.41641C21.5212 9.72795 21.4286 10.094 21.4535 10.4801C21.4832 10.9573 21.6888 11.3814 22 11.696C21.841 11.6646 21.6736 11.6512 21.5032 11.6629C20.8272 11.706 20.2558 12.097 19.9543 12.6504C19.8349 11.832 19.2004 11.1957 18.4054 11.055C19.0765 10.7268 19.5188 10.0178 19.4688 9.22765L19.4671 9.22908Z" fill="#F9AD3C"/>
</svg>
