<svg width="78" height="24" viewBox="0 0 78 24" fill="none" xmlns="http://www.w3.org/2000/svg">
<rect width="78" height="24" rx="4" fill="#ECFDF3"/>
<circle cx="10" cy="12" r="3" fill="#12B76A"/>
<path d="M23.8642 16H21.0389V7.27273H23.9537C24.8088 7.27273 25.5431 7.44744 26.1568 7.79688C26.7704 8.14347 27.2406 8.64205 27.5673 9.29261C27.8968 9.94034 28.0616 10.7173 28.0616 11.6236C28.0616 12.5327 27.8954 13.3139 27.563 13.9673C27.2335 14.6207 26.7562 15.1236 26.1312 15.4759C25.5062 15.8253 24.7505 16 23.8642 16ZM22.3556 14.8494H23.7917C24.4565 14.8494 25.0091 14.7244 25.4494 14.4744C25.8897 14.2216 26.2193 13.8565 26.438 13.3793C26.6568 12.8991 26.7662 12.3139 26.7662 11.6236C26.7662 10.9389 26.6568 10.358 26.438 9.88068C26.2221 9.40341 25.8997 9.04119 25.4707 8.79403C25.0417 8.54687 24.5091 8.4233 23.8727 8.4233H22.3556V14.8494ZM29.5968 16V9.45455H30.8709V16H29.5968ZM30.2402 8.4446C30.0186 8.4446 29.8283 8.37074 29.6692 8.22301C29.513 8.07244 29.4348 7.89347 29.4348 7.68608C29.4348 7.47585 29.513 7.29687 29.6692 7.14915C29.8283 6.99858 30.0186 6.9233 30.2402 6.9233C30.4618 6.9233 30.6507 6.99858 30.807 7.14915C30.9661 7.29687 31.0456 7.47585 31.0456 7.68608C31.0456 7.89347 30.9661 8.07244 30.807 8.22301C30.6507 8.37074 30.4618 8.4446 30.2402 8.4446ZM37.4899 11.0526L36.335 11.2571C36.2868 11.1094 36.21 10.9687 36.1049 10.8352C36.0027 10.7017 35.8635 10.5923 35.6873 10.5071C35.5112 10.4219 35.291 10.3793 35.0268 10.3793C34.666 10.3793 34.3649 10.4602 34.1234 10.6222C33.8819 10.7812 33.7612 10.9872 33.7612 11.2401C33.7612 11.4588 33.8422 11.6349 34.0041 11.7685C34.166 11.902 34.4274 12.0114 34.7882 12.0966L35.8279 12.3352C36.4302 12.4744 36.8791 12.6889 37.1745 12.9787C37.47 13.2685 37.6177 13.6449 37.6177 14.108C37.6177 14.5 37.5041 14.8494 37.2768 15.1562C37.0524 15.4602 36.7385 15.6989 36.335 15.8722C35.9345 16.0455 35.47 16.1321 34.9416 16.1321C34.2086 16.1321 33.6106 15.9759 33.1475 15.6634C32.6845 15.348 32.4004 14.9006 32.2953 14.321L33.5268 14.1335C33.6035 14.4545 33.7612 14.6974 33.9998 14.8622C34.2385 15.0241 34.5495 15.1051 34.9331 15.1051C35.3507 15.1051 35.6845 15.0185 35.9345 14.8452C36.1845 14.669 36.3095 14.4545 36.3095 14.2017C36.3095 13.9972 36.2328 13.8253 36.0794 13.6861C35.9288 13.5469 35.6973 13.4418 35.3848 13.3707L34.2768 13.1278C33.666 12.9886 33.2143 12.767 32.9217 12.4631C32.6319 12.1591 32.487 11.7741 32.487 11.3082C32.487 10.9219 32.595 10.5838 32.8109 10.294C33.0268 10.0043 33.3251 9.77841 33.7058 9.61648C34.0865 9.4517 34.5225 9.36932 35.014 9.36932C35.7214 9.36932 36.2782 9.52273 36.6845 9.82955C37.0907 10.1335 37.3592 10.5412 37.4899 11.0526ZM41.8397 16.1321C41.1948 16.1321 40.6394 15.9943 40.1735 15.7188C39.7104 15.4403 39.3525 15.0497 39.0996 14.5469C38.8496 14.0412 38.7246 13.4489 38.7246 12.7699C38.7246 12.0994 38.8496 11.5085 39.0996 10.9972C39.3525 10.4858 39.7047 10.0866 40.1564 9.79972C40.611 9.51278 41.1422 9.36932 41.7502 9.36932C42.1195 9.36932 42.4775 9.4304 42.824 9.55256C43.1706 9.67472 43.4817 9.86648 43.7573 10.1278C44.0328 10.3892 44.2502 10.7287 44.4093 11.1463C44.5684 11.5611 44.6479 12.0653 44.6479 12.6591V13.1108H39.4448V12.1562H43.3993C43.3993 11.821 43.3311 11.5241 43.1948 11.2656C43.0584 11.0043 42.8667 10.7983 42.6195 10.6477C42.3752 10.4972 42.0882 10.4219 41.7587 10.4219C41.4007 10.4219 41.0882 10.5099 40.8212 10.6861C40.557 10.8594 40.3525 11.0866 40.2076 11.3679C40.0655 11.6463 39.9945 11.9489 39.9945 12.2756V13.0213C39.9945 13.4588 40.0712 13.831 40.2246 14.1378C40.3809 14.4446 40.5982 14.679 40.8766 14.8409C41.155 15 41.4803 15.0795 41.8525 15.0795C42.0939 15.0795 42.3141 15.0455 42.513 14.9773C42.7118 14.9062 42.8837 14.8011 43.0286 14.6619C43.1735 14.5227 43.2843 14.3509 43.361 14.1463L44.5669 14.3636C44.4703 14.7187 44.2971 15.0298 44.0471 15.2969C43.7999 15.5611 43.4888 15.767 43.1138 15.9148C42.7417 16.0597 42.3169 16.1321 41.8397 16.1321ZM49.117 9.45455V10.4773H45.5417V9.45455H49.117ZM46.5005 7.88636H47.7747V14.0781C47.7747 14.3253 47.8116 14.5114 47.8855 14.6364C47.9593 14.7585 48.0545 14.8423 48.171 14.8878C48.2903 14.9304 48.4196 14.9517 48.5588 14.9517C48.661 14.9517 48.7505 14.9446 48.8272 14.9304C48.9039 14.9162 48.9636 14.9048 49.0062 14.8963L49.2363 15.9489C49.1625 15.9773 49.0574 16.0057 48.921 16.0341C48.7846 16.0653 48.6142 16.0824 48.4096 16.0852C48.0744 16.0909 47.7619 16.0312 47.4721 15.9062C47.1824 15.7812 46.948 15.5881 46.769 15.3267C46.59 15.0653 46.5005 14.7372 46.5005 14.3423V7.88636ZM54.6728 13.2855V9.45455H55.9512V16H54.6983V14.8665H54.6301C54.4796 15.2159 54.2381 15.5071 53.9057 15.7401C53.5762 15.9702 53.1657 16.0852 52.6742 16.0852C52.2537 16.0852 51.8816 15.9929 51.5577 15.8082C51.2367 15.6207 50.9838 15.3438 50.7992 14.9773C50.6174 14.6108 50.5265 14.1577 50.5265 13.6179V9.45455H51.8006V13.4645C51.8006 13.9105 51.9242 14.2656 52.1713 14.5298C52.4185 14.794 52.7395 14.9261 53.1344 14.9261C53.373 14.9261 53.6103 14.8665 53.8461 14.7472C54.0847 14.6278 54.2821 14.4474 54.4384 14.206C54.5975 13.9645 54.6756 13.6577 54.6728 13.2855ZM57.6632 9.45455H58.9373V16.4261C58.9373 16.8636 58.8578 17.233 58.6987 17.5341C58.5424 17.8352 58.3095 18.0639 57.9998 18.2202C57.693 18.3764 57.3137 18.4545 56.862 18.4545C56.8166 18.4545 56.774 18.4545 56.7342 18.4545C56.6916 18.4545 56.6475 18.4531 56.6021 18.4503V17.3551C56.6419 17.3551 56.6774 17.3551 56.7086 17.3551C56.737 17.3551 56.7697 17.3551 56.8066 17.3551C57.1078 17.3551 57.3251 17.2741 57.4586 17.1122C57.595 16.9531 57.6632 16.7216 57.6632 16.4176V9.45455ZM58.2939 8.4446C58.0723 8.4446 57.8819 8.37074 57.7228 8.22301C57.5666 8.07244 57.4885 7.89347 57.4885 7.68608C57.4885 7.47585 57.5666 7.29687 57.7228 7.14915C57.8819 6.99858 58.0723 6.9233 58.2939 6.9233C58.5154 6.9233 58.7044 6.99858 58.8606 7.14915C59.0197 7.29687 59.0993 7.47585 59.0993 7.68608C59.0993 7.89347 59.0197 8.07244 58.8606 8.22301C58.7044 8.37074 58.5154 8.4446 58.2939 8.4446ZM64.7978 13.2855V9.45455H66.0762V16H64.8233V14.8665H64.7551C64.6046 15.2159 64.3631 15.5071 64.0307 15.7401C63.7012 15.9702 63.2907 16.0852 62.7992 16.0852C62.3787 16.0852 62.0066 15.9929 61.6827 15.8082C61.3617 15.6207 61.1088 15.3438 60.9242 14.9773C60.7424 14.6108 60.6515 14.1577 60.6515 13.6179V9.45455H61.9256V13.4645C61.9256 13.9105 62.0492 14.2656 62.2963 14.5298C62.5435 14.794 62.8645 14.9261 63.2594 14.9261C63.498 14.9261 63.7353 14.8665 63.9711 14.7472C64.2097 14.6278 64.4071 14.4474 64.5634 14.206C64.7225 13.9645 64.8006 13.6577 64.7978 13.2855ZM67.7882 16V9.45455H69.0623V16H67.7882ZM68.4316 8.4446C68.21 8.4446 68.0197 8.37074 67.8606 8.22301C67.7044 8.07244 67.6262 7.89347 67.6262 7.68608C67.6262 7.47585 67.7044 7.29687 67.8606 7.14915C68.0197 6.99858 68.21 6.9233 68.4316 6.9233C68.6532 6.9233 68.8422 6.99858 68.9984 7.14915C69.1575 7.29687 69.237 7.47585 69.237 7.68608C69.237 7.89347 69.1575 8.07244 68.9984 8.22301C68.8422 8.37074 68.6532 8.4446 68.4316 8.4446Z" fill="#027A48"/>
</svg>
