<svg width="68" height="24" viewBox="0 0 68 24" fill="none" xmlns="http://www.w3.org/2000/svg">
<rect width="68" height="24" rx="5" fill="#FFF6ED"/>
<circle cx="10" cy="12" r="3" fill="#D9380B"/>
<path d="M23.8974 16H21.0721V7.27273H23.9869C24.842 7.27273 25.5763 7.44744 26.19 7.79688C26.8036 8.14347 27.2738 8.64205 27.6005 9.29261C27.93 9.94034 28.0948 10.7173 28.0948 11.6236C28.0948 12.5327 27.9286 13.3139 27.5962 13.9673C27.2667 14.6207 26.7894 15.1236 26.1644 15.4759C25.5394 15.8253 24.7837 16 23.8974 16ZM22.3888 14.8494H23.8249C24.4897 14.8494 25.0423 14.7244 25.4826 14.4744C25.9229 14.2216 26.2525 13.8565 26.4712 13.3793C26.69 12.8991 26.7994 12.3139 26.7994 11.6236C26.7994 10.9389 26.69 10.358 26.4712 9.88068C26.2553 9.40341 25.9329 9.04119 25.5039 8.79403C25.0749 8.54687 24.5423 8.4233 23.9059 8.4233H22.3888V14.8494ZM29.63 16V9.45455H30.9041V16H29.63ZM30.2734 8.4446C30.0518 8.4446 29.8615 8.37074 29.7024 8.22301C29.5462 8.07244 29.468 7.89347 29.468 7.68608C29.468 7.47585 29.5462 7.29687 29.7024 7.14915C29.8615 6.99858 30.0518 6.9233 30.2734 6.9233C30.495 6.9233 30.6839 6.99858 30.8402 7.14915C30.9993 7.29687 31.0788 7.47585 31.0788 7.68608C31.0788 7.89347 30.9993 8.07244 30.8402 8.22301C30.6839 8.37074 30.495 8.4446 30.2734 8.4446ZM35.6737 9.45455V10.4773H32.0984V9.45455H35.6737ZM33.0572 7.88636H34.3313V14.0781C34.3313 14.3253 34.3683 14.5114 34.4421 14.6364C34.516 14.7585 34.6112 14.8423 34.7276 14.8878C34.8469 14.9304 34.9762 14.9517 35.1154 14.9517C35.2177 14.9517 35.3072 14.9446 35.3839 14.9304C35.4606 14.9162 35.5202 14.9048 35.5629 14.8963L35.793 15.9489C35.7191 15.9773 35.614 16.0057 35.4776 16.0341C35.3413 16.0653 35.1708 16.0824 34.9663 16.0852C34.631 16.0909 34.3185 16.0312 34.0288 15.9062C33.739 15.7812 33.5046 15.5881 33.3256 15.3267C33.1467 15.0653 33.0572 14.7372 33.0572 14.3423V7.88636ZM39.7699 16.1321C39.1563 16.1321 38.6207 15.9915 38.1634 15.7102C37.706 15.429 37.3509 15.0355 37.098 14.5298C36.8452 14.0241 36.7188 13.4332 36.7188 12.7571C36.7188 12.0781 36.8452 11.4844 37.098 10.9759C37.3509 10.4673 37.706 10.0724 38.1634 9.79119C38.6207 9.50994 39.1563 9.36932 39.7699 9.36932C40.3835 9.36932 40.919 9.50994 41.3764 9.79119C41.8338 10.0724 42.1889 10.4673 42.4418 10.9759C42.6946 11.4844 42.821 12.0781 42.821 12.7571C42.821 13.4332 42.6946 14.0241 42.4418 14.5298C42.1889 15.0355 41.8338 15.429 41.3764 15.7102C40.919 15.9915 40.3835 16.1321 39.7699 16.1321ZM39.7741 15.0625C40.1719 15.0625 40.5014 14.9574 40.7628 14.7472C41.0241 14.5369 41.2173 14.2571 41.3423 13.9077C41.4702 13.5582 41.5341 13.1733 41.5341 12.7528C41.5341 12.3352 41.4702 11.9517 41.3423 11.6023C41.2173 11.25 41.0241 10.9673 40.7628 10.7543C40.5014 10.5412 40.1719 10.4347 39.7741 10.4347C39.3736 10.4347 39.0412 10.5412 38.777 10.7543C38.5156 10.9673 38.321 11.25 38.1932 11.6023C38.0682 11.9517 38.0057 12.3352 38.0057 12.7528C38.0057 13.1733 38.0682 13.5582 38.1932 13.9077C38.321 14.2571 38.5156 14.5369 38.777 14.7472C39.0412 14.9574 39.3736 15.0625 39.7741 15.0625ZM45.5174 7.27273V16H44.2433V7.27273H45.5174ZM49.1364 16.1449C48.7216 16.1449 48.3466 16.0682 48.0114 15.9148C47.6761 15.7585 47.4105 15.5327 47.2145 15.2372C47.0213 14.9418 46.9247 14.5795 46.9247 14.1506C46.9247 13.7812 46.9957 13.4773 47.1378 13.2386C47.2798 13 47.4716 12.8111 47.7131 12.6719C47.9545 12.5327 48.2244 12.4276 48.5227 12.3565C48.821 12.2855 49.125 12.2315 49.4347 12.1946C49.8267 12.1491 50.1449 12.1122 50.3892 12.0838C50.6335 12.0526 50.8111 12.0028 50.9219 11.9347C51.0327 11.8665 51.0881 11.7557 51.0881 11.6023V11.5724C51.0881 11.2003 50.983 10.9119 50.7727 10.7074C50.5653 10.5028 50.2557 10.4006 49.8438 10.4006C49.4148 10.4006 49.0767 10.4957 48.8295 10.6861C48.5852 10.8736 48.4162 11.0824 48.3224 11.3125L47.125 11.0398C47.267 10.642 47.4744 10.321 47.7472 10.0767C48.0227 9.82955 48.3395 9.65057 48.6974 9.53977C49.0554 9.42614 49.4318 9.36932 49.8267 9.36932C50.0881 9.36932 50.3651 9.40057 50.6577 9.46307C50.9531 9.52273 51.2287 9.63352 51.4844 9.79545C51.7429 9.95739 51.9545 10.1889 52.1193 10.4901C52.2841 10.7884 52.3665 11.1761 52.3665 11.6534V16H51.1222V15.1051H51.071C50.9886 15.2699 50.8651 15.4318 50.7003 15.5909C50.5355 15.75 50.3239 15.8821 50.0653 15.9872C49.8068 16.0923 49.4972 16.1449 49.1364 16.1449ZM49.4134 15.1222C49.7656 15.1222 50.0668 15.0526 50.3168 14.9134C50.5696 14.7741 50.7614 14.5923 50.892 14.3679C51.0256 14.1406 51.0923 13.8977 51.0923 13.6392V12.7955C51.0469 12.8409 50.9588 12.8835 50.8281 12.9233C50.7003 12.9602 50.554 12.9929 50.3892 13.0213C50.2244 13.0469 50.0639 13.071 49.9077 13.0938C49.7514 13.1136 49.6207 13.1307 49.5156 13.1449C49.2685 13.1761 49.0426 13.2287 48.8381 13.3026C48.6364 13.3764 48.4744 13.483 48.3523 13.6222C48.233 13.7585 48.1733 13.9403 48.1733 14.1676C48.1733 14.483 48.2898 14.7216 48.5227 14.8835C48.7557 15.0426 49.0526 15.1222 49.4134 15.1222ZM55.2354 13.7798L55.2269 12.2244H55.4485L58.0565 9.45455H59.582L56.6076 12.608H56.4073L55.2354 13.7798ZM54.0636 16V7.27273H55.3377V16H54.0636ZM58.1971 16L55.8533 12.8892L56.7312 11.9986L59.761 16H58.1971Z" fill="#C4320A"/>
</svg>
