<svg width="16" height="16" viewBox="0 0 16 16" fill="none" xmlns="http://www.w3.org/2000/svg">
<path d="M3.43335 15.1666C3.16002 15.1666 2.93335 14.94 2.93335 14.6666V1.33331C2.93335 1.05998 3.16002 0.833313 3.43335 0.833313C3.70668 0.833313 3.93335 1.05998 3.93335 1.33331V14.6666C3.93335 14.94 3.70668 15.1666 3.43335 15.1666Z" fill="#404040"/>
<path d="M10.9 11.1667H3.43335C3.16002 11.1667 2.93335 10.94 2.93335 10.6667C2.93335 10.3934 3.16002 10.1667 3.43335 10.1667H10.9C11.6267 10.1667 11.9667 9.97335 12.0333 9.80669C12.1 9.64002 12 9.26669 11.48 8.75335L10.68 7.95335C10.3534 7.66669 10.1533 7.23335 10.1333 6.75335C10.1133 6.24669 10.3134 5.74669 10.68 5.38002L11.48 4.58002C11.9733 4.08669 12.1267 3.68669 12.0534 3.51335C11.98 3.34002 11.6 3.16669 10.9 3.16669H3.43335C3.15335 3.16669 2.93335 2.94002 2.93335 2.66669C2.93335 2.39335 3.16002 2.16669 3.43335 2.16669H10.9C12.36 2.16669 12.8267 2.77335 12.98 3.13335C13.1267 3.49335 13.2267 4.25335 12.1867 5.29335L11.3867 6.09335C11.22 6.26002 11.1267 6.49335 11.1334 6.72669C11.14 6.92669 11.22 7.10669 11.36 7.23335L12.1867 8.05335C13.2067 9.07335 13.1067 9.83335 12.96 10.2C12.8067 10.5534 12.3334 11.1667 10.9 11.1667Z" fill="#404040"/>
</svg>
