<svg width="402" height="241" viewBox="0 0 402 241" fill="none" xmlns="http://www.w3.org/2000/svg">
<path d="M335.783 205.798C335.783 211.178 334.066 215.299 330.632 218.161C327.312 221.023 322.218 222.453 315.35 222.453V212.151C316.838 210.434 318.212 208.545 319.471 206.485L318.441 205.798C311.114 216.902 301.27 222.453 288.907 222.453C283.069 222.453 277.803 221.137 273.109 218.504C268.531 215.757 264.867 211.979 262.12 207.171C259.487 202.364 258.171 196.926 258.171 190.859V138.905C258.171 134.212 259.888 130.892 263.322 128.946C266.871 126.885 272.251 125.855 279.463 125.855V189.314C279.463 193.778 280.836 197.327 283.584 199.96C286.331 202.592 290.28 203.909 295.432 203.909C301.155 203.909 305.734 202.135 309.168 198.586C312.717 194.923 314.491 190.401 314.491 185.021V152.691C314.491 147.997 316.208 144.678 319.643 142.732C323.077 140.671 328.457 139.641 335.783 139.641V205.798Z" fill="white"/>
<path d="M229.413 222.455C220.14 222.455 213.272 219.765 208.808 214.385C204.343 209.005 202.111 202.079 202.111 193.608V151.024H184.425C184.425 145.644 185.455 141.637 187.516 139.005C189.576 136.372 192.324 135.055 195.758 135.055H202.454V123.575C202.454 118.881 204.171 115.562 207.606 113.616C211.04 111.555 216.248 110.525 223.231 110.525V135.055H246.068C246.068 140.779 244.981 144.9 242.806 147.418C240.631 149.822 237.14 151.024 232.332 151.024H223.575V192.749C223.575 196.756 224.319 199.618 225.807 201.335C227.409 203.052 230.099 203.911 233.877 203.911C237.884 203.911 241.89 202.823 245.897 200.648C247.041 201.678 247.957 202.995 248.644 204.597C249.331 206.086 249.674 207.631 249.674 209.234C249.674 212.668 247.9 215.758 244.351 218.506C240.803 221.139 235.823 222.455 229.413 222.455Z" fill="white"/>
<path d="M137.998 222.454C132.16 222.454 126.78 221.309 121.858 219.02C117.05 216.73 113.158 213.468 110.181 209.232C107.32 204.883 105.889 199.731 105.889 193.779C105.889 187.826 107.434 182.675 110.525 178.325C113.616 173.86 117.794 170.484 123.06 168.194C128.44 165.79 134.335 164.588 140.746 164.588C146.011 164.588 150.705 165.447 154.826 167.164C159.061 168.766 162.953 171.228 166.502 174.547L167.36 173.689C166.33 172.659 164.556 171.113 162.037 169.053V165.618C162.037 160.925 160.378 157.205 157.058 154.457C153.738 151.71 149.102 150.336 143.15 150.336C132.504 150.336 124.662 154.228 119.625 162.013C117.107 161.211 114.989 159.952 113.272 158.235C111.555 156.403 110.697 154.457 110.697 152.397C110.697 148.963 112.242 145.815 115.333 142.953C118.423 140.091 122.602 137.802 127.867 136.085C133.133 134.367 138.857 133.509 145.038 133.509C157.172 133.509 166.559 136.371 173.199 142.094C179.838 147.703 183.158 155.373 183.158 165.103V208.031C183.158 213.067 181.555 216.73 178.35 219.02C175.145 221.309 170.108 222.454 163.239 222.454V215.414C165.185 213.468 166.502 212.037 167.189 211.121L166.502 210.263C162.724 214.269 158.661 217.303 154.311 219.363C150.075 221.424 144.638 222.454 137.998 222.454ZM143.493 206.829C149.446 206.829 154.082 205.684 157.401 203.394C160.721 201.105 162.381 197.842 162.381 193.607C162.381 189.486 160.664 186.223 157.23 183.82C153.91 181.416 149.388 180.214 143.665 180.214C138.399 180.214 134.221 181.416 131.13 183.82C128.154 186.109 126.665 189.371 126.665 193.607C126.665 197.957 128.154 201.277 131.13 203.566C134.106 205.741 138.227 206.829 143.493 206.829Z" fill="white"/>
<path d="M18.5379 113.59C18.5379 109.011 20.3122 105.462 23.8609 102.944C27.524 100.426 32.9614 99.1665 40.1732 99.1665V139.003C38.5706 140.262 37.3114 141.407 36.3956 142.437L37.0824 143.296C40.1732 140.319 44.1797 137.973 49.1021 136.256C54.1388 134.424 58.775 133.508 63.0104 133.508C73.1985 133.508 81.3261 136.37 87.3931 142.094C93.4601 147.703 96.4937 155.086 96.4937 164.244V191.546C96.4937 197.498 95.0055 202.821 92.0292 207.515C89.053 212.208 85.0464 215.871 80.0096 218.504C74.9728 221.137 69.5926 222.453 63.869 222.453C57.8019 222.453 52.479 221.251 47.9001 218.847C43.4356 216.329 39.3719 212.666 35.7088 207.858L35.0219 208.545C35.4798 209.346 36.0522 210.148 36.739 210.949C37.4258 211.75 37.941 212.38 38.2844 212.838C38.2844 216.043 36.739 218.447 33.6483 220.049C30.5575 221.652 25.5207 222.453 18.5379 222.453V113.59ZM57.5158 203.909C63.2394 203.909 67.5894 202.764 70.5656 200.475C73.6564 198.071 75.2018 194.579 75.2018 190V165.618C75.2018 161.268 73.6564 157.948 70.5656 155.659C67.4749 153.255 63.1249 152.053 57.5158 152.053C52.479 152.053 48.2435 153.312 44.8093 155.83C41.4896 158.349 39.8298 161.382 39.8298 164.931V190.859C39.8298 194.637 41.4896 197.785 44.8093 200.303C48.129 202.707 52.3645 203.909 57.5158 203.909Z" fill="white"/>
<path d="M186.494 101.547C186.494 106.927 184.777 111.048 181.343 113.91C178.023 116.772 172.929 118.203 166.06 118.203V98.7013C167.549 96.9842 168.922 95.0955 170.182 93.0349L169.151 92.3481C161.825 103.452 151.98 109.004 139.617 109.004C133.779 109.004 128.514 107.687 123.82 105.055C119.241 102.307 115.578 98.5296 112.831 93.7218C110.198 88.9139 108.881 83.4765 108.881 77.4094V33.1086C108.881 28.4152 110.599 25.0955 114.033 23.1495C117.581 21.089 122.962 20.0587 130.173 20.0587V75.8641C130.173 80.3285 131.547 83.8771 134.294 86.51C137.042 89.1429 140.991 90.4593 146.142 90.4593C151.866 90.4593 156.445 88.685 159.879 85.1363C163.428 81.4732 165.202 76.9516 165.202 71.5714V33.1086C165.202 28.4152 166.919 25.0955 170.353 23.1495C173.787 21.089 179.168 20.0587 186.494 20.0587V101.547Z" fill="white"/>
<path d="M19.4701 36.5428C19.4701 31.277 21.1299 27.2133 24.4496 24.3514C27.8838 21.4896 33.0351 20.0587 39.9034 20.0587V30.3612C38.5297 31.9639 37.1561 33.7954 35.7824 35.8559L36.8127 36.5428C40.2468 31.3915 44.654 27.385 50.0342 24.5231C55.4144 21.5469 61.367 20.0587 67.8919 20.0587C73.73 20.0587 78.8813 21.3751 83.3457 24.008C87.8102 26.6409 91.2443 30.2468 93.6482 34.8257C96.1666 39.4046 97.4258 44.5558 97.4258 50.2795V105.153C97.4258 109.732 95.6515 113.051 92.1029 115.112C88.5542 117.172 83.174 118.203 75.9622 118.203V53.3702C75.9622 49.0203 74.6458 45.4716 72.0129 42.7243C69.4945 39.9769 65.7742 38.6033 60.8519 38.6033C55.0138 38.6033 50.2059 40.4348 46.4283 44.0979C42.6507 47.6466 40.762 52.111 40.762 57.4912V80.6229C40.762 85.2018 39.0449 88.5214 35.6107 90.582C32.1765 92.6425 26.7963 93.6727 19.4701 93.6727V36.5428Z" fill="white"/>
<path d="M223.975 55.3327C223.975 35.0115 240.449 18.538 260.77 18.538H334.359V73.7301C334.359 94.0512 317.886 110.525 297.565 110.525H223.975V55.3327Z" fill="#FFD600"/>
<path d="M289.728 85.7521C287.454 85.7521 285.395 85.1674 283.549 83.9979C281.717 82.8155 280.262 81.0807 279.183 78.7937C278.118 76.4938 277.585 73.674 277.585 70.3345C277.585 66.9041 278.137 64.0518 279.242 61.7778C280.346 59.4909 281.815 57.7821 283.647 56.6516C285.492 55.5081 287.513 54.9364 289.709 54.9364C291.385 54.9364 292.782 55.2223 293.899 55.794C295.03 56.3528 295.939 57.0545 296.628 57.8991C297.33 58.7307 297.862 59.5493 298.226 60.355H298.48V45.3467H306.764V85.2649H298.577V80.47H298.226C297.836 81.3016 297.284 82.1268 296.57 82.9454C295.868 83.751 294.952 84.4202 293.821 84.953C292.704 85.4858 291.339 85.7521 289.728 85.7521ZM292.359 79.1446C293.698 79.1446 294.828 78.7808 295.751 78.0531C296.686 77.3124 297.401 76.2794 297.895 74.954C298.402 73.6286 298.655 72.0757 298.655 70.2955C298.655 68.5153 298.408 66.969 297.914 65.6566C297.421 64.3442 296.706 63.3307 295.77 62.616C294.835 61.9013 293.698 61.5439 292.359 61.5439C290.995 61.5439 289.845 61.9143 288.909 62.655C287.974 63.3956 287.266 64.4222 286.785 65.7346C286.304 67.047 286.064 68.5673 286.064 70.2955C286.064 72.0368 286.304 73.5766 286.785 74.915C287.279 76.2404 287.987 77.2799 288.909 78.0336C289.845 78.7743 290.995 79.1446 292.359 79.1446Z" fill="black"/>
<path d="M264.208 85.2673V55.3286H272.511V85.2673H264.208ZM268.379 51.4694C267.145 51.4694 266.086 51.06 265.202 50.2414C264.331 49.4098 263.896 48.4157 263.896 47.2592C263.896 46.1157 264.331 45.1347 265.202 44.316C266.086 43.4844 267.145 43.0686 268.379 43.0686C269.614 43.0686 270.666 43.4844 271.537 44.316C272.42 45.1347 272.862 46.1157 272.862 47.2592C272.862 48.4157 272.42 49.4098 271.537 50.2414C270.666 51.06 269.614 51.4694 268.379 51.4694Z" fill="black"/>
<path d="M253.183 85.77C251.896 85.77 250.792 85.3152 249.869 84.4056C248.96 83.483 248.505 82.3785 248.505 81.0921C248.505 79.8186 248.96 78.7271 249.869 77.8175C250.792 76.9079 251.896 76.4531 253.183 76.4531C254.43 76.4531 255.522 76.9079 256.457 77.8175C257.393 78.7271 257.861 79.8186 257.861 81.0921C257.861 81.9497 257.64 82.7358 257.198 83.4505C256.769 84.1522 256.204 84.7174 255.502 85.1462C254.801 85.5621 254.027 85.77 253.183 85.77Z" fill="black"/>
</svg>
