<svg width="89" height="24" viewBox="0 0 89 24" fill="none" xmlns="http://www.w3.org/2000/svg">
<rect width="89" height="24" rx="5" fill="#FFFAEB"/>
<circle cx="10" cy="12" r="3" fill="#EB8D00"/>
<path d="M21.3709 16V7.27273H24.4817C25.1607 7.27273 25.7232 7.39631 26.1692 7.64347C26.6152 7.89062 26.949 8.22869 27.1706 8.65767C27.3922 9.08381 27.503 9.56392 27.503 10.098C27.503 10.6349 27.3908 11.1179 27.1664 11.5469C26.9448 11.973 26.6096 12.3111 26.1607 12.5611C25.7147 12.8082 25.1536 12.9318 24.4775 12.9318H22.3382V11.8153H24.3581C24.7871 11.8153 25.1351 11.7415 25.4022 11.5938C25.6692 11.4432 25.8652 11.2386 25.9902 10.9801C26.1152 10.7216 26.1777 10.4276 26.1777 10.098C26.1777 9.76847 26.1152 9.47585 25.9902 9.22017C25.8652 8.96449 25.6678 8.7642 25.3979 8.61932C25.1309 8.47443 24.7786 8.40199 24.3411 8.40199H22.6877V16H21.3709ZM31.6834 16.1321C31.0385 16.1321 30.4831 15.9943 30.0172 15.7188C29.5542 15.4403 29.1962 15.0497 28.9434 14.5469C28.6934 14.0412 28.5684 13.4489 28.5684 12.7699C28.5684 12.0994 28.6934 11.5085 28.9434 10.9972C29.1962 10.4858 29.5485 10.0866 30.0002 9.79972C30.4547 9.51278 30.986 9.36932 31.5939 9.36932C31.9632 9.36932 32.3212 9.4304 32.6678 9.55256C33.0144 9.67472 33.3255 9.86648 33.601 10.1278C33.8766 10.3892 34.0939 10.7287 34.253 11.1463C34.4121 11.5611 34.4917 12.0653 34.4917 12.6591V13.1108H29.2885V12.1562H33.2431C33.2431 11.821 33.1749 11.5241 33.0385 11.2656C32.9022 11.0043 32.7104 10.7983 32.4632 10.6477C32.2189 10.4972 31.932 10.4219 31.6025 10.4219C31.2445 10.4219 30.932 10.5099 30.665 10.6861C30.4007 10.8594 30.1962 11.0866 30.0513 11.3679C29.9093 11.6463 29.8382 11.9489 29.8382 12.2756V13.0213C29.8382 13.4588 29.915 13.831 30.0684 14.1378C30.2246 14.4446 30.4419 14.679 30.7203 14.8409C30.9988 15 31.324 15.0795 31.6962 15.0795C31.9377 15.0795 32.1578 15.0455 32.3567 14.9773C32.5556 14.9062 32.7275 14.8011 32.8723 14.6619C33.0172 14.5227 33.128 14.3509 33.2047 14.1463L34.4107 14.3636C34.3141 14.7187 34.1408 15.0298 33.8908 15.2969C33.6436 15.5611 33.3326 15.767 32.9576 15.9148C32.5854 16.0597 32.1607 16.1321 31.6834 16.1321ZM37.1795 12.1136V16H35.9054V9.45455H37.1284V10.5199H37.2093C37.3599 10.1733 37.5957 9.89489 37.9167 9.68466C38.2406 9.47443 38.6483 9.36932 39.1397 9.36932C39.5858 9.36932 39.9764 9.46307 40.3116 9.65057C40.6468 9.83523 40.9068 10.1108 41.0914 10.4773C41.2761 10.8437 41.3684 11.2969 41.3684 11.8366V16H40.0943V11.9901C40.0943 11.5156 39.9707 11.1449 39.7235 10.8778C39.4764 10.608 39.1369 10.473 38.7051 10.473C38.4096 10.473 38.1468 10.5369 37.9167 10.6648C37.6895 10.7926 37.5091 10.9801 37.3755 11.2273C37.2449 11.4716 37.1795 11.767 37.1795 12.1136ZM45.8216 18.5909C45.3017 18.5909 44.8542 18.5227 44.4792 18.3864C44.1071 18.25 43.8031 18.0696 43.5673 17.8452C43.3315 17.6207 43.1554 17.375 43.0389 17.108L44.1341 16.6562C44.2108 16.7812 44.313 16.9134 44.4409 17.0526C44.5716 17.1946 44.7477 17.3153 44.9693 17.4148C45.1937 17.5142 45.4821 17.5639 45.8343 17.5639C46.3173 17.5639 46.7164 17.446 47.0318 17.2102C47.3471 16.9773 47.5048 16.6051 47.5048 16.0938V14.8068H47.4238C47.3471 14.946 47.2363 15.1009 47.0914 15.2713C46.9494 15.4418 46.7534 15.5895 46.5034 15.7145C46.2534 15.8395 45.9281 15.902 45.5275 15.902C45.0105 15.902 44.5446 15.7812 44.1298 15.5398C43.7179 15.2955 43.3912 14.9361 43.1497 14.4616C42.911 13.9844 42.7917 13.3977 42.7917 12.7017C42.7917 12.0057 42.9096 11.4091 43.1454 10.9119C43.3841 10.4148 43.7108 10.0341 44.1255 9.76989C44.5403 9.50284 45.0105 9.36932 45.536 9.36932C45.9423 9.36932 46.2704 9.4375 46.5204 9.57386C46.7704 9.70739 46.965 9.86364 47.1042 10.0426C47.2463 10.2216 47.3556 10.3793 47.4324 10.5156H47.5261V9.45455H48.7747V16.1449C48.7747 16.7074 48.644 17.169 48.3826 17.5298C48.1213 17.8906 47.7676 18.1577 47.3216 18.331C46.8784 18.5043 46.3784 18.5909 45.8216 18.5909ZM45.8088 14.8452C46.1752 14.8452 46.4849 14.7599 46.7377 14.5895C46.9934 14.4162 47.1866 14.169 47.3173 13.848C47.4508 13.5241 47.5176 13.1364 47.5176 12.6847C47.5176 12.2443 47.4522 11.8565 47.3216 11.5213C47.1909 11.1861 46.9991 10.9247 46.7463 10.7372C46.4934 10.5469 46.1809 10.4517 45.8088 10.4517C45.4252 10.4517 45.1056 10.5511 44.85 10.75C44.5943 10.946 44.4011 11.2131 44.2704 11.5511C44.1426 11.8892 44.0787 12.267 44.0787 12.6847C44.0787 13.1136 44.144 13.4901 44.2747 13.8139C44.4054 14.1378 44.5985 14.3906 44.8542 14.5724C45.1127 14.7543 45.4309 14.8452 45.8088 14.8452ZM52.3883 16.1449C51.9735 16.1449 51.5985 16.0682 51.2633 15.9148C50.9281 15.7585 50.6625 15.5327 50.4664 15.2372C50.2733 14.9418 50.1767 14.5795 50.1767 14.1506C50.1767 13.7812 50.2477 13.4773 50.3897 13.2386C50.5318 13 50.7235 12.8111 50.965 12.6719C51.2065 12.5327 51.4764 12.4276 51.7747 12.3565C52.073 12.2855 52.377 12.2315 52.6866 12.1946C53.0787 12.1491 53.3968 12.1122 53.6412 12.0838C53.8855 12.0526 54.063 12.0028 54.1738 11.9347C54.2846 11.8665 54.34 11.7557 54.34 11.6023V11.5724C54.34 11.2003 54.2349 10.9119 54.0247 10.7074C53.8173 10.5028 53.5076 10.4006 53.0957 10.4006C52.6667 10.4006 52.3287 10.4957 52.0815 10.6861C51.8372 10.8736 51.6681 11.0824 51.5744 11.3125L50.377 11.0398C50.519 10.642 50.7264 10.321 50.9991 10.0767C51.2747 9.82955 51.5914 9.65057 51.9494 9.53977C52.3074 9.42614 52.6838 9.36932 53.0787 9.36932C53.34 9.36932 53.617 9.40057 53.9096 9.46307C54.2051 9.52273 54.4806 9.63352 54.7363 9.79545C54.9949 9.95739 55.2065 10.1889 55.3713 10.4901C55.536 10.7884 55.6184 11.1761 55.6184 11.6534V16H54.3741V15.1051H54.323C54.2406 15.2699 54.117 15.4318 53.9522 15.5909C53.7875 15.75 53.5758 15.8821 53.3173 15.9872C53.0588 16.0923 52.7491 16.1449 52.3883 16.1449ZM52.6653 15.1222C53.0176 15.1222 53.3187 15.0526 53.5687 14.9134C53.8216 14.7741 54.0133 14.5923 54.144 14.3679C54.2775 14.1406 54.3443 13.8977 54.3443 13.6392V12.7955C54.2988 12.8409 54.2108 12.8835 54.0801 12.9233C53.9522 12.9602 53.8059 12.9929 53.6412 13.0213C53.4764 13.0469 53.3159 13.071 53.1596 13.0938C53.0034 13.1136 52.8727 13.1307 52.7676 13.1449C52.5204 13.1761 52.2946 13.2287 52.09 13.3026C51.8883 13.3764 51.7264 13.483 51.6042 13.6222C51.4849 13.7585 51.4252 13.9403 51.4252 14.1676C51.4252 14.483 51.5417 14.7216 51.7747 14.8835C52.0076 15.0426 52.3045 15.1222 52.6653 15.1222ZM57.3155 9.45455H58.5897V16.4261C58.5897 16.8636 58.5101 17.233 58.351 17.5341C58.1948 17.8352 57.9618 18.0639 57.6522 18.2202C57.3453 18.3764 56.9661 18.4545 56.5144 18.4545C56.4689 18.4545 56.4263 18.4545 56.3865 18.4545C56.3439 18.4545 56.2999 18.4531 56.2544 18.4503V17.3551C56.2942 17.3551 56.3297 17.3551 56.361 17.3551C56.3894 17.3551 56.4221 17.3551 56.459 17.3551C56.7601 17.3551 56.9775 17.2741 57.111 17.1122C57.2473 16.9531 57.3155 16.7216 57.3155 16.4176V9.45455ZM57.9462 8.4446C57.7246 8.4446 57.5343 8.37074 57.3752 8.22301C57.2189 8.07244 57.1408 7.89347 57.1408 7.68608C57.1408 7.47585 57.2189 7.29687 57.3752 7.14915C57.5343 6.99858 57.7246 6.9233 57.9462 6.9233C58.1678 6.9233 58.3567 6.99858 58.513 7.14915C58.6721 7.29687 58.7516 7.47585 58.7516 7.68608C58.7516 7.89347 58.6721 8.07244 58.513 8.22301C58.3567 8.37074 58.1678 8.4446 57.9462 8.4446ZM64.4501 13.2855V9.45455H65.7285V16H64.4757V14.8665H64.4075C64.2569 15.2159 64.0154 15.5071 63.6831 15.7401C63.3535 15.9702 62.943 16.0852 62.4515 16.0852C62.0311 16.0852 61.6589 15.9929 61.335 15.8082C61.014 15.6207 60.7612 15.3438 60.5765 14.9773C60.3947 14.6108 60.3038 14.1577 60.3038 13.6179V9.45455H61.5779V13.4645C61.5779 13.9105 61.7015 14.2656 61.9487 14.5298C62.1958 14.794 62.5169 14.9261 62.9118 14.9261C63.1504 14.9261 63.3876 14.8665 63.6234 14.7472C63.862 14.6278 64.0595 14.4474 64.2157 14.206C64.3748 13.9645 64.4529 13.6577 64.4501 13.2855ZM69.3453 16.1449C68.9306 16.1449 68.5556 16.0682 68.2203 15.9148C67.8851 15.7585 67.6195 15.5327 67.4235 15.2372C67.2303 14.9418 67.1337 14.5795 67.1337 14.1506C67.1337 13.7812 67.2047 13.4773 67.3468 13.2386C67.4888 13 67.6806 12.8111 67.9221 12.6719C68.1635 12.5327 68.4334 12.4276 68.7317 12.3565C69.03 12.2855 69.334 12.2315 69.6436 12.1946C70.0357 12.1491 70.3539 12.1122 70.5982 12.0838C70.8425 12.0526 71.0201 12.0028 71.1309 11.9347C71.2417 11.8665 71.2971 11.7557 71.2971 11.6023V11.5724C71.2971 11.2003 71.1919 10.9119 70.9817 10.7074C70.7743 10.5028 70.4647 10.4006 70.0527 10.4006C69.6238 10.4006 69.2857 10.4957 69.0385 10.6861C68.7942 10.8736 68.6252 11.0824 68.5314 11.3125L67.334 11.0398C67.476 10.642 67.6834 10.321 67.9561 10.0767C68.2317 9.82955 68.5485 9.65057 68.9064 9.53977C69.2644 9.42614 69.6408 9.36932 70.0357 9.36932C70.2971 9.36932 70.574 9.40057 70.8667 9.46307C71.1621 9.52273 71.4377 9.63352 71.6934 9.79545C71.9519 9.95739 72.1635 10.1889 72.3283 10.4901C72.4931 10.7884 72.5755 11.1761 72.5755 11.6534V16H71.3311V15.1051H71.28C71.1976 15.2699 71.074 15.4318 70.9093 15.5909C70.7445 15.75 70.5328 15.8821 70.2743 15.9872C70.0158 16.0923 69.7061 16.1449 69.3453 16.1449ZM69.6223 15.1222C69.9746 15.1222 70.2757 15.0526 70.5257 14.9134C70.7786 14.7741 70.9703 14.5923 71.101 14.3679C71.2346 14.1406 71.3013 13.8977 71.3013 13.6392V12.7955C71.2559 12.8409 71.1678 12.8835 71.0371 12.9233C70.9093 12.9602 70.763 12.9929 70.5982 13.0213C70.4334 13.0469 70.2729 13.071 70.1167 13.0938C69.9604 13.1136 69.8297 13.1307 69.7246 13.1449C69.4775 13.1761 69.2516 13.2287 69.0471 13.3026C68.8453 13.3764 68.6834 13.483 68.5613 13.6222C68.4419 13.7585 68.3823 13.9403 68.3823 14.1676C68.3823 14.483 68.4988 14.7216 68.7317 14.8835C68.9647 15.0426 69.2615 15.1222 69.6223 15.1222ZM75.5467 12.1136V16H74.2725V9.45455H75.4956V10.5199H75.5765C75.7271 10.1733 75.9629 9.89489 76.2839 9.68466C76.6078 9.47443 77.0154 9.36932 77.5069 9.36932C77.9529 9.36932 78.3436 9.46307 78.6788 9.65057C79.014 9.83523 79.274 10.1108 79.4586 10.4773C79.6433 10.8437 79.7356 11.2969 79.7356 11.8366V16H78.4615V11.9901C78.4615 11.5156 78.3379 11.1449 78.0907 10.8778C77.8436 10.608 77.5041 10.473 77.0723 10.473C76.7768 10.473 76.514 10.5369 76.2839 10.6648C76.0566 10.7926 75.8762 10.9801 75.7427 11.2273C75.612 11.4716 75.5467 11.767 75.5467 12.1136Z" fill="#B86E00"/>
</svg>
