<svg width="16" height="16" viewBox="0 0 16 16" fill="none" xmlns="http://www.w3.org/2000/svg">
<path d="M7.99997 15.1666C4.5333 15.1666 1.71997 12.3466 1.71997 8.88664C1.71997 5.42664 4.5333 2.59998 7.99997 2.59998C8.7133 2.59998 9.40664 2.69998 10.0733 2.90664C10.34 2.98664 10.4866 3.26664 10.4066 3.53331C10.3266 3.79998 10.0466 3.94664 9.77997 3.86664C9.2133 3.69331 8.6133 3.59998 7.99997 3.59998C5.08664 3.59998 2.71997 5.96664 2.71997 8.87998C2.71997 11.7933 5.08664 14.16 7.99997 14.16C10.9133 14.16 13.28 11.7933 13.28 8.87998C13.28 7.82664 12.9733 6.81331 12.3933 5.94664C12.24 5.71998 12.3 5.40664 12.5333 5.25331C12.76 5.09998 13.0733 5.15998 13.2266 5.39331C13.92 6.42664 14.2866 7.63331 14.2866 8.88664C14.28 12.3466 11.4666 15.1666 7.99997 15.1666Z" fill="#404040"/>
<path d="M10.7534 4.04664C10.6134 4.04664 10.4734 3.98664 10.3734 3.87331L8.44672 1.65998C8.26672 1.45331 8.28672 1.13331 8.49338 0.95331C8.70005 0.77331 9.02005 0.79331 9.20005 0.999976L11.1267 3.21331C11.3067 3.41998 11.2867 3.73998 11.0801 3.91998C10.9934 4.00664 10.8734 4.04664 10.7534 4.04664Z" fill="#404040"/>
<path d="M8.50673 5.68666C8.35339 5.68666 8.20006 5.61332 8.10006 5.47999C7.94006 5.25999 7.98673 4.94666 8.20673 4.77999L10.4534 3.13999C10.6734 2.97332 10.9867 3.02666 11.1534 3.24666C11.3201 3.46666 11.2667 3.77999 11.0467 3.94666L8.80006 5.59332C8.71339 5.65999 8.61339 5.68666 8.50673 5.68666Z" fill="#404040"/>
</svg>
