<svg width="32" height="32" viewBox="0 0 32 32" fill="none" xmlns="http://www.w3.org/2000/svg">
<rect width="32" height="32" rx="5" fill="#009B4C"/>
<path d="M9.3295 20V11.2727H12.6022C13.2727 11.2727 13.8352 11.3892 14.2897 11.6222C14.7471 11.8551 15.0923 12.1818 15.3252 12.6023C15.561 13.0199 15.6789 13.5071 15.6789 14.0639C15.6789 14.6236 15.5596 15.1094 15.321 15.5213C15.0852 15.9304 14.7372 16.2472 14.2769 16.4716C13.8167 16.6932 13.2514 16.804 12.5809 16.804H10.25V15.4915H12.3679C12.7599 15.4915 13.0809 15.4375 13.3309 15.3295C13.5809 15.2187 13.7656 15.0582 13.8849 14.848C14.0071 14.6349 14.0681 14.3736 14.0681 14.0639C14.0681 13.7543 14.0071 13.4901 13.8849 13.2713C13.7627 13.0497 13.5767 12.8821 13.3267 12.7685C13.0767 12.652 12.7542 12.5938 12.3593 12.5938H10.9105V20H9.3295ZM13.838 16.0455L15.9985 20H14.2343L12.1122 16.0455H13.838ZM16.8239 22.4545V13.4545H18.341V14.5369H18.4304C18.51 14.3778 18.6222 14.2088 18.7671 14.0298C18.912 13.848 19.108 13.6932 19.3552 13.5653C19.6023 13.4347 19.9177 13.3693 20.3012 13.3693C20.8069 13.3693 21.2628 13.4986 21.6691 13.7571C22.0782 14.0128 22.402 14.392 22.6407 14.8949C22.8821 15.3949 23.0029 16.0085 23.0029 16.7358C23.0029 17.4545 22.885 18.0653 22.6492 18.5682C22.4134 19.071 22.0924 19.4545 21.6861 19.7188C21.2799 19.983 20.8196 20.1151 20.3054 20.1151C19.9304 20.1151 19.6194 20.0526 19.3722 19.9276C19.125 19.8026 18.9262 19.652 18.7756 19.4759C18.6279 19.2969 18.5128 19.1278 18.4304 18.9688H18.3665V22.4545H16.8239ZM18.3367 16.7273C18.3367 17.1506 18.3963 17.5213 18.5157 17.8395C18.6378 18.1577 18.8125 18.4062 19.0398 18.5852C19.2699 18.7614 19.5483 18.8494 19.875 18.8494C20.216 18.8494 20.5015 18.7585 20.7316 18.5767C20.9617 18.392 21.135 18.1406 21.2515 17.8224C21.3708 17.5014 21.4304 17.1364 21.4304 16.7273C21.4304 16.321 21.3722 15.9602 21.2557 15.6449C21.1392 15.3295 20.966 15.0824 20.7358 14.9034C20.5057 14.7244 20.2188 14.6349 19.875 14.6349C19.5455 14.6349 19.2657 14.7216 19.0356 14.8949C18.8054 15.0682 18.6307 15.3111 18.5114 15.6236C18.3949 15.9361 18.3367 16.304 18.3367 16.7273Z" fill="white"/>
</svg>
