<svg width="20" height="20" viewBox="0 0 20 20" fill="none" xmlns="http://www.w3.org/2000/svg">
<path d="M9.99996 18.9584C5.05829 18.9584 1.04163 14.9417 1.04163 10.0001C1.04163 5.05841 5.05829 1.04175 9.99996 1.04175C14.9416 1.04175 18.9583 5.05841 18.9583 10.0001C18.9583 14.9417 14.9416 18.9584 9.99996 18.9584ZM9.99996 2.29175C5.74996 2.29175 2.29163 5.75008 2.29163 10.0001C2.29163 14.2501 5.74996 17.7084 9.99996 17.7084C14.25 17.7084 17.7083 14.2501 17.7083 10.0001C17.7083 5.75008 14.25 2.29175 9.99996 2.29175Z" fill="#808080"/>
<path d="M10 11.4584C9.65833 11.4584 9.375 11.1751 9.375 10.8334V6.66675C9.375 6.32508 9.65833 6.04175 10 6.04175C10.3417 6.04175 10.625 6.32508 10.625 6.66675V10.8334C10.625 11.1751 10.3417 11.4584 10 11.4584Z" fill="#808080"/>
<path d="M9.99996 14.1667C9.89163 14.1667 9.78329 14.1417 9.68329 14.1C9.58329 14.0583 9.49163 14 9.40829 13.925C9.33329 13.8416 9.27496 13.7583 9.23329 13.65C9.19163 13.55 9.16663 13.4417 9.16663 13.3333C9.16663 13.225 9.19163 13.1167 9.23329 13.0167C9.27496 12.9167 9.33329 12.825 9.40829 12.7417C9.49163 12.6667 9.58329 12.6083 9.68329 12.5667C9.88329 12.4833 10.1166 12.4833 10.3166 12.5667C10.4166 12.6083 10.5083 12.6667 10.5916 12.7417C10.6666 12.825 10.725 12.9167 10.7666 13.0167C10.8083 13.1167 10.8333 13.225 10.8333 13.3333C10.8333 13.4417 10.8083 13.55 10.7666 13.65C10.725 13.7583 10.6666 13.8416 10.5916 13.925C10.5083 14 10.4166 14.0583 10.3166 14.1C10.2166 14.1417 10.1083 14.1667 9.99996 14.1667Z" fill="#808080"/>
</svg>
