<svg width="16" height="16" viewBox="0 0 16 16" fill="none" xmlns="http://www.w3.org/2000/svg">
<path d="M13.9999 4.48657C13.9866 4.48657 13.9666 4.48657 13.9466 4.48657C10.4199 4.13324 6.89994 3.9999 3.41328 4.35324L2.05328 4.48657C1.77328 4.51324 1.52661 4.31324 1.49994 4.03324C1.47328 3.75324 1.67328 3.51324 1.94661 3.48657L3.30661 3.35324C6.85328 2.99324 10.4466 3.13324 14.0466 3.48657C14.3199 3.51324 14.5199 3.7599 14.4933 4.03324C14.4733 4.29324 14.2533 4.48657 13.9999 4.48657Z" fill="white"/>
<path d="M5.66663 3.81325C5.63997 3.81325 5.6133 3.81325 5.57997 3.80659C5.3133 3.75992 5.12663 3.49992 5.1733 3.23325L5.31997 2.35992C5.42663 1.71992 5.5733 0.833252 7.12663 0.833252H8.8733C10.4333 0.833252 10.58 1.75325 10.68 2.36659L10.8266 3.23325C10.8733 3.50659 10.6866 3.76659 10.42 3.80659C10.1466 3.85325 9.88663 3.66659 9.84663 3.39992L9.69997 2.53325C9.60663 1.95325 9.58663 1.83992 8.87997 1.83992H7.1333C6.42663 1.83992 6.4133 1.93325 6.3133 2.52659L6.15997 3.39325C6.11997 3.63992 5.90663 3.81325 5.66663 3.81325Z" fill="white"/>
<path d="M10.14 15.1667H5.85997C3.53331 15.1667 3.43997 13.88 3.36664 12.84L2.93331 6.12672C2.91331 5.85338 3.12664 5.61338 3.39997 5.59338C3.67997 5.58005 3.91331 5.78672 3.93331 6.06005L4.36664 12.7734C4.43997 13.7867 4.46664 14.1667 5.85997 14.1667H10.14C11.54 14.1667 11.5666 13.7867 11.6333 12.7734L12.0666 6.06005C12.0866 5.78672 12.3266 5.58005 12.6 5.59338C12.8733 5.61338 13.0866 5.84672 13.0666 6.12672L12.6333 12.84C12.56 13.88 12.4666 15.1667 10.14 15.1667Z" fill="white"/>
<path d="M9.10672 11.5H6.88672C6.61339 11.5 6.38672 11.2733 6.38672 11C6.38672 10.7267 6.61339 10.5 6.88672 10.5H9.10672C9.38005 10.5 9.60672 10.7267 9.60672 11C9.60672 11.2733 9.38005 11.5 9.10672 11.5Z" fill="white"/>
<path d="M9.66671 8.83325H6.33337C6.06004 8.83325 5.83337 8.60659 5.83337 8.33325C5.83337 8.05992 6.06004 7.83325 6.33337 7.83325H9.66671C9.94004 7.83325 10.1667 8.05992 10.1667 8.33325C10.1667 8.60659 9.94004 8.83325 9.66671 8.83325Z" fill="white"/>
</svg>
