<svg width="32" height="33" viewBox="0 0 32 33" fill="none" xmlns="http://www.w3.org/2000/svg">
<path d="M22.3333 5.24675V3.16675C22.3333 2.62008 21.88 2.16675 21.3333 2.16675C20.7866 2.16675 20.3333 2.62008 20.3333 3.16675V5.16675H11.6666V3.16675C11.6666 2.62008 11.2133 2.16675 10.6666 2.16675C10.12 2.16675 9.66665 2.62008 9.66665 3.16675V5.24675C6.06665 5.58008 4.31998 7.72675 4.05331 10.9134C4.02665 11.3001 4.34665 11.6201 4.71998 11.6201H27.28C27.6666 11.6201 27.9866 11.2867 27.9466 10.9134C27.68 7.72675 25.9333 5.58008 22.3333 5.24675Z" fill="#009B4C"/>
<path d="M26.6667 13.6201H5.33333C4.6 13.6201 4 14.2201 4 14.9535V23.1668C4 27.1668 6 29.8335 10.6667 29.8335H21.3333C26 29.8335 28 27.1668 28 23.1668V14.9535C28 14.2201 27.4 13.6201 26.6667 13.6201ZM12.28 24.7801C12.1467 24.9001 12 24.9935 11.84 25.0601C11.68 25.1268 11.5067 25.1668 11.3333 25.1668C11.16 25.1668 10.9867 25.1268 10.8267 25.0601C10.6667 24.9935 10.52 24.9001 10.3867 24.7801C10.1467 24.5268 10 24.1801 10 23.8335C10 23.4868 10.1467 23.1401 10.3867 22.8868C10.52 22.7668 10.6667 22.6735 10.8267 22.6068C11.1467 22.4735 11.52 22.4735 11.84 22.6068C12 22.6735 12.1467 22.7668 12.28 22.8868C12.52 23.1401 12.6667 23.4868 12.6667 23.8335C12.6667 24.1801 12.52 24.5268 12.28 24.7801ZM12.56 19.6735C12.4933 19.8335 12.4 19.9801 12.28 20.1135C12.1467 20.2335 12 20.3268 11.84 20.3935C11.68 20.4601 11.5067 20.5001 11.3333 20.5001C11.16 20.5001 10.9867 20.4601 10.8267 20.3935C10.6667 20.3268 10.52 20.2335 10.3867 20.1135C10.2667 19.9801 10.1733 19.8335 10.1067 19.6735C10.04 19.5135 10 19.3401 10 19.1668C10 18.9935 10.04 18.8201 10.1067 18.6601C10.1733 18.5001 10.2667 18.3535 10.3867 18.2201C10.52 18.1001 10.6667 18.0068 10.8267 17.9401C11.1467 17.8068 11.52 17.8068 11.84 17.9401C12 18.0068 12.1467 18.1001 12.28 18.2201C12.4 18.3535 12.4933 18.5001 12.56 18.6601C12.6267 18.8201 12.6667 18.9935 12.6667 19.1668C12.6667 19.3401 12.6267 19.5135 12.56 19.6735ZM16.9467 20.1135C16.8133 20.2335 16.6667 20.3268 16.5067 20.3935C16.3467 20.4601 16.1733 20.5001 16 20.5001C15.8267 20.5001 15.6533 20.4601 15.4933 20.3935C15.3333 20.3268 15.1867 20.2335 15.0533 20.1135C14.8133 19.8601 14.6667 19.5135 14.6667 19.1668C14.6667 18.8201 14.8133 18.4735 15.0533 18.2201C15.1867 18.1001 15.3333 18.0068 15.4933 17.9401C15.8133 17.7935 16.1867 17.7935 16.5067 17.9401C16.6667 18.0068 16.8133 18.1001 16.9467 18.2201C17.1867 18.4735 17.3333 18.8201 17.3333 19.1668C17.3333 19.5135 17.1867 19.8601 16.9467 20.1135Z" fill="#009B4C"/>
</svg>
