<svg width="57" height="24" viewBox="0 0 57 24" fill="none" xmlns="http://www.w3.org/2000/svg">
<rect width="57" height="24" rx="5" fill="#FFFAEB"/>
<circle cx="10" cy="12" r="3" fill="#EB8D00"/>
<path d="M23.8173 16H20.992V7.27273H23.9068C24.7619 7.27273 25.4963 7.44744 26.1099 7.79688C26.7235 8.14347 27.1937 8.64205 27.5204 9.29261C27.85 9.94034 28.0147 10.7173 28.0147 11.6236C28.0147 12.5327 27.8485 13.3139 27.5162 13.9673C27.1866 14.6207 26.7093 15.1236 26.0843 15.4759C25.4593 15.8253 24.7037 16 23.8173 16ZM22.3088 14.8494H23.7449C24.4096 14.8494 24.9622 14.7244 25.4025 14.4744C25.8429 14.2216 26.1724 13.8565 26.3912 13.3793C26.6099 12.8991 26.7193 12.3139 26.7193 11.6236C26.7193 10.9389 26.6099 10.358 26.3912 9.88068C26.1752 9.40341 25.8528 9.04119 25.4238 8.79403C24.9949 8.54687 24.4622 8.4233 23.8258 8.4233H22.3088V14.8494ZM29.5499 16V9.45455H30.7814V10.4943H30.8496C30.9689 10.142 31.1792 9.86506 31.4803 9.66335C31.7843 9.45881 32.128 9.35653 32.5115 9.35653C32.5911 9.35653 32.6848 9.35937 32.7928 9.36506C32.9036 9.37074 32.9902 9.37784 33.0527 9.38636V10.6051C33.0016 10.5909 32.9107 10.5753 32.78 10.5582C32.6493 10.5384 32.5186 10.5284 32.388 10.5284C32.0868 10.5284 31.8184 10.5923 31.5826 10.7202C31.3496 10.8452 31.165 11.0199 31.0286 11.2443C30.8922 11.4659 30.824 11.7187 30.824 12.0028V16H29.5499ZM36.0016 16.1449C35.5868 16.1449 35.2118 16.0682 34.8766 15.9148C34.5414 15.7585 34.2757 15.5327 34.0797 15.2372C33.8865 14.9418 33.79 14.5795 33.79 14.1506C33.79 13.7812 33.861 13.4773 34.003 13.2386C34.1451 13 34.3368 12.8111 34.5783 12.6719C34.8198 12.5327 35.0897 12.4276 35.388 12.3565C35.6863 12.2855 35.9902 12.2315 36.2999 12.1946C36.6919 12.1491 37.0101 12.1122 37.2544 12.0838C37.4988 12.0526 37.6763 12.0028 37.7871 11.9347C37.8979 11.8665 37.9533 11.7557 37.9533 11.6023V11.5724C37.9533 11.2003 37.8482 10.9119 37.638 10.7074C37.4306 10.5028 37.1209 10.4006 36.709 10.4006C36.28 10.4006 35.9419 10.4957 35.6948 10.6861C35.4505 10.8736 35.2814 11.0824 35.1877 11.3125L33.9902 11.0398C34.1323 10.642 34.3397 10.321 34.6124 10.0767C34.888 9.82955 35.2047 9.65057 35.5627 9.53977C35.9206 9.42614 36.2971 9.36932 36.6919 9.36932C36.9533 9.36932 37.2303 9.40057 37.5229 9.46307C37.8184 9.52273 38.0939 9.63352 38.3496 9.79545C38.6081 9.95739 38.8198 10.1889 38.9846 10.4901C39.1493 10.7884 39.2317 11.1761 39.2317 11.6534V16H37.9874V15.1051H37.9363C37.8539 15.2699 37.7303 15.4318 37.5655 15.5909C37.4007 15.75 37.1891 15.8821 36.9306 15.9872C36.6721 16.0923 36.3624 16.1449 36.0016 16.1449ZM36.2786 15.1222C36.6309 15.1222 36.932 15.0526 37.182 14.9134C37.4348 14.7741 37.6266 14.5923 37.7573 14.3679C37.8908 14.1406 37.9576 13.8977 37.9576 13.6392V12.7955C37.9121 12.8409 37.824 12.8835 37.6934 12.9233C37.5655 12.9602 37.4192 12.9929 37.2544 13.0213C37.0897 13.0469 36.9292 13.071 36.7729 13.0938C36.6167 13.1136 36.486 13.1307 36.3809 13.1449C36.1337 13.1761 35.9078 13.2287 35.7033 13.3026C35.5016 13.3764 35.3397 13.483 35.2175 13.6222C35.0982 13.7585 35.0385 13.9403 35.0385 14.1676C35.0385 14.483 35.155 14.7216 35.388 14.8835C35.6209 15.0426 35.9178 15.1222 36.2786 15.1222ZM44.0439 9.45455V10.4773H40.345V9.45455H44.0439ZM41.3592 16V8.69602C41.3592 8.28693 41.4487 7.94744 41.6277 7.67756C41.8066 7.40483 42.0439 7.2017 42.3393 7.06818C42.6348 6.93182 42.9558 6.86364 43.3024 6.86364C43.5581 6.86364 43.7768 6.88494 43.9586 6.92756C44.1404 6.96733 44.2754 7.00426 44.3635 7.03835L44.0652 8.0696C44.0055 8.05256 43.9288 8.03267 43.835 8.00994C43.7413 7.98437 43.6277 7.97159 43.4941 7.97159C43.1845 7.97159 42.9629 8.0483 42.8294 8.2017C42.6987 8.35511 42.6333 8.5767 42.6333 8.86648V16H41.3592ZM48.4139 9.45455V10.4773H44.8386V9.45455H48.4139ZM45.7974 7.88636H47.0716V14.0781C47.0716 14.3253 47.1085 14.5114 47.1824 14.6364C47.2562 14.7585 47.3514 14.8423 47.4679 14.8878C47.5872 14.9304 47.7164 14.9517 47.8556 14.9517C47.9579 14.9517 48.0474 14.9446 48.1241 14.9304C48.2008 14.9162 48.2605 14.9048 48.3031 14.8963L48.5332 15.9489C48.4593 15.9773 48.3542 16.0057 48.2179 16.0341C48.0815 16.0653 47.911 16.0824 47.7065 16.0852C47.3713 16.0909 47.0588 16.0312 46.769 15.9062C46.4792 15.7812 46.2449 15.5881 46.0659 15.3267C45.8869 15.0653 45.7974 14.7372 45.7974 14.3423V7.88636Z" fill="#B86E00"/>
</svg>
