<svg width="40" height="41" viewBox="0 0 40 41" fill="none" xmlns="http://www.w3.org/2000/svg">
<path opacity="0.4" d="M36.6667 13.5166V23.6666L33.95 21.3333C32.65 20.2166 30.55 20.2166 29.25 21.3333L22.3167 27.2833C21.0167 28.3999 18.9167 28.3999 17.6167 27.2833L17.05 26.8166C15.8667 25.7833 13.9834 25.6833 12.65 26.5833L4.45004 32.0833L4.26671 32.2166C3.65004 30.8833 3.33337 29.2999 3.33337 27.4833V13.5166C3.33337 7.44992 6.95004 3.83325 13.0167 3.83325H26.9834C33.05 3.83325 36.6667 7.44992 36.6667 13.5166Z" fill="#009B4C"/>
<path d="M15 17.8C17.1907 17.8 18.9667 16.0241 18.9667 13.8334C18.9667 11.6426 17.1907 9.8667 15 9.8667C12.8093 9.8667 11.0333 11.6426 11.0333 13.8334C11.0333 16.0241 12.8093 17.8 15 17.8Z" fill="#009B4C"/>
<path d="M36.6667 23.6667V27.4834C36.6667 33.55 33.0501 37.1667 26.9834 37.1667H13.0167C8.76672 37.1667 5.70006 35.3834 4.26672 32.2167L4.45006 32.0834L12.6501 26.5833C13.9834 25.6833 15.8667 25.7833 17.0501 26.8167L17.6167 27.2833C18.9167 28.4 21.0167 28.4 22.3167 27.2833L29.2501 21.3333C30.5501 20.2167 32.6501 20.2167 33.9501 21.3333L36.6667 23.6667Z" fill="#009B4C"/>
</svg>
