<svg width="70" height="24" viewBox="0 0 70 24" fill="none" xmlns="http://www.w3.org/2000/svg">
<rect width="70" height="24" rx="5" fill="#ECFDF3"/>
<circle cx="10" cy="12" r="3" fill="#12B76A"/>
<path d="M20.9822 16V7.27273H24.093C24.772 7.27273 25.3345 7.39631 25.7805 7.64347C26.2266 7.89062 26.5604 8.22869 26.782 8.65767C27.0036 9.08381 27.1143 9.56392 27.1143 10.098C27.1143 10.6349 27.0021 11.1179 26.7777 11.5469C26.5561 11.973 26.2209 12.3111 25.772 12.5611C25.326 12.8082 24.7649 12.9318 24.0888 12.9318H21.9496V11.8153H23.9695C24.3984 11.8153 24.7464 11.7415 25.0135 11.5938C25.2805 11.4432 25.4766 11.2386 25.6016 10.9801C25.7266 10.7216 25.7891 10.4276 25.7891 10.098C25.7891 9.76847 25.7266 9.47585 25.6016 9.22017C25.4766 8.96449 25.2791 8.7642 25.0092 8.61932C24.7422 8.47443 24.3899 8.40199 23.9524 8.40199H22.299V16H20.9822ZM32.7021 13.2855V9.45455H33.9805V16H32.7276V14.8665H32.6594C32.5089 15.2159 32.2674 15.5071 31.935 15.7401C31.6055 15.9702 31.195 16.0852 30.7035 16.0852C30.283 16.0852 29.9109 15.9929 29.587 15.8082C29.266 15.6207 29.0131 15.3438 28.8285 14.9773C28.6467 14.6108 28.5558 14.1577 28.5558 13.6179V9.45455H29.8299V13.4645C29.8299 13.9105 29.9535 14.2656 30.2006 14.5298C30.4478 14.794 30.7688 14.9261 31.1637 14.9261C31.4023 14.9261 31.6396 14.8665 31.8754 14.7472C32.114 14.6278 32.3114 14.4474 32.4677 14.206C32.6268 13.9645 32.7049 13.6577 32.7021 13.2855ZM35.7947 16V7.27273H37.0689V10.5156H37.1456C37.2195 10.3793 37.326 10.2216 37.4652 10.0426C37.6044 9.86364 37.7976 9.70739 38.0447 9.57386C38.2919 9.4375 38.6186 9.36932 39.0249 9.36932C39.5533 9.36932 40.0249 9.50284 40.4396 9.76989C40.8544 10.0369 41.1797 10.4219 41.4155 10.9247C41.6541 11.4276 41.7734 12.0327 41.7734 12.7401C41.7734 13.4474 41.6555 14.054 41.4197 14.5597C41.1839 15.0625 40.8601 15.4503 40.4482 15.723C40.0362 15.9929 39.5661 16.1278 39.0376 16.1278C38.6399 16.1278 38.3146 16.0611 38.0618 15.9276C37.8118 15.794 37.6158 15.6378 37.4737 15.4588C37.3317 15.2798 37.2223 15.1207 37.1456 14.9815H37.0391V16H35.7947ZM37.0433 12.7273C37.0433 13.1875 37.1101 13.5909 37.2436 13.9375C37.3771 14.2841 37.5703 14.5554 37.8232 14.7514C38.076 14.9446 38.3857 15.0412 38.7521 15.0412C39.1328 15.0412 39.451 14.9403 39.7067 14.7386C39.9624 14.5341 40.1555 14.2571 40.2862 13.9077C40.4197 13.5582 40.4865 13.1648 40.4865 12.7273C40.4865 12.2955 40.4212 11.9077 40.2905 11.5639C40.1626 11.2202 39.9695 10.9489 39.7109 10.75C39.4553 10.5511 39.1357 10.4517 38.7521 10.4517C38.3828 10.4517 38.0703 10.5469 37.8146 10.7372C37.5618 10.9276 37.37 11.1932 37.2393 11.5341C37.1087 11.875 37.0433 12.2727 37.0433 12.7273ZM44.4783 7.27273V16H43.2042V7.27273H44.4783ZM46.1925 16V9.45455H47.4666V16H46.1925ZM46.8359 8.4446C46.6143 8.4446 46.424 8.37074 46.2649 8.22301C46.1087 8.07244 46.0305 7.89347 46.0305 7.68608C46.0305 7.47585 46.1087 7.29687 46.2649 7.14915C46.424 6.99858 46.6143 6.9233 46.8359 6.9233C47.0575 6.9233 47.2464 6.99858 47.4027 7.14915C47.5618 7.29687 47.6413 7.47585 47.6413 7.68608C47.6413 7.89347 47.5618 8.07244 47.4027 8.22301C47.2464 8.37074 47.0575 8.4446 46.8359 8.4446ZM54.0856 11.0526L52.9308 11.2571C52.8825 11.1094 52.8058 10.9687 52.7006 10.8352C52.5984 10.7017 52.4592 10.5923 52.283 10.5071C52.1069 10.4219 51.8867 10.3793 51.6225 10.3793C51.2617 10.3793 50.9606 10.4602 50.7191 10.6222C50.4776 10.7812 50.3569 10.9872 50.3569 11.2401C50.3569 11.4588 50.4379 11.6349 50.5998 11.7685C50.7617 11.902 51.0231 12.0114 51.3839 12.0966L52.4237 12.3352C53.0259 12.4744 53.4748 12.6889 53.7702 12.9787C54.0657 13.2685 54.2134 13.6449 54.2134 14.108C54.2134 14.5 54.0998 14.8494 53.8725 15.1562C53.6481 15.4602 53.3342 15.6989 52.9308 15.8722C52.5302 16.0455 52.0657 16.1321 51.5373 16.1321C50.8043 16.1321 50.2063 15.9759 49.7433 15.6634C49.2802 15.348 48.9961 14.9006 48.891 14.321L50.1225 14.1335C50.1992 14.4545 50.3569 14.6974 50.5955 14.8622C50.8342 15.0241 51.1452 15.1051 51.5288 15.1051C51.9464 15.1051 52.2802 15.0185 52.5302 14.8452C52.7802 14.669 52.9052 14.4545 52.9052 14.2017C52.9052 13.9972 52.8285 13.8253 52.6751 13.6861C52.5245 13.5469 52.293 13.4418 51.9805 13.3707L50.8725 13.1278C50.2617 12.9886 49.81 12.767 49.5174 12.4631C49.2276 12.1591 49.0827 11.7741 49.0827 11.3082C49.0827 10.9219 49.1907 10.5838 49.4066 10.294C49.6225 10.0043 49.9208 9.77841 50.3015 9.61648C50.6822 9.4517 51.1183 9.36932 51.6097 9.36932C52.3171 9.36932 52.8739 9.52273 53.2802 9.82955C53.6864 10.1335 53.9549 10.5412 54.0856 11.0526ZM56.8885 12.1136V16H55.6143V7.27273H56.8714V10.5199H56.9524C57.1058 10.1676 57.3402 9.88778 57.6555 9.6804C57.9709 9.47301 58.3828 9.36932 58.8913 9.36932C59.3402 9.36932 59.7322 9.46165 60.0675 9.64631C60.4055 9.83097 60.6669 10.1065 60.8516 10.473C61.0391 10.8366 61.1328 11.2912 61.1328 11.8366V16H59.8587V11.9901C59.8587 11.5099 59.7351 11.1378 59.4879 10.8736C59.2408 10.6065 58.897 10.473 58.4567 10.473C58.1555 10.473 57.8857 10.5369 57.647 10.6648C57.4112 10.7926 57.2251 10.9801 57.0888 11.2273C56.9553 11.4716 56.8885 11.767 56.8885 12.1136Z" fill="#027A48"/>
</svg>
