<svg width="40" height="40" viewBox="0 0 40 40" fill="none" xmlns="http://www.w3.org/2000/svg">
<rect width="40" height="40" rx="10" fill="#FF0000"/>
<path d="M19.97 30C25.4928 30 29.97 25.5228 29.97 20C29.97 14.4772 25.4928 10 19.97 10C14.4471 10 9.96997 14.4772 9.96997 20C9.96997 25.5228 14.4471 30 19.97 30Z" stroke="white" stroke-width="1.5" stroke-linecap="round" stroke-linejoin="round"/>
<path d="M16.74 20.2301V18.5601C16.74 16.4801 18.21 15.6301 20.01 16.6701L21.46 17.5101L22.91 18.3501C24.71 19.3901 24.71 21.0901 22.91 22.1301L21.46 22.9701L20.01 23.8101C18.21 24.8501 16.74 24.0001 16.74 21.9201V20.2301Z" stroke="white" stroke-width="1.5" stroke-miterlimit="10" stroke-linecap="round" stroke-linejoin="round"/>
</svg>
